<svg width="16" height="16" viewBox="0 0 16 16" fill="none" xmlns="http://www.w3.org/2000/svg">
<path d="M8.00004 1.33398C4.32004 1.33398 1.33337 4.32065 1.33337 8.00065C1.33337 11.6807 4.32004 14.6673 8.00004 14.6673C11.68 14.6673 14.6667 11.6807 14.6667 8.00065C14.6667 4.32065 11.68 1.33398 8.00004 1.33398ZM6.19337 10.8607L3.80004 8.46732C3.54004 8.20732 3.54004 7.78732 3.80004 7.52732C4.06004 7.26732 4.48004 7.26732 4.74004 7.52732L6.66671 9.44732L11.2534 4.86065C11.5134 4.60065 11.9334 4.60065 12.1934 4.86065C12.4534 5.12065 12.4534 5.54065 12.1934 5.80065L7.13337 10.8607C6.88004 11.1207 6.45337 11.1207 6.19337 10.8607Z" fill="white"/>
</svg>
