<svg width="24" height="25" viewBox="0 0 24 25" fill="none" xmlns="http://www.w3.org/2000/svg">
<path fill-rule="evenodd" clip-rule="evenodd" d="M10.5815 2.82321C6.74281 3.43702 3.67184 6.04963 2.48106 9.71673C1.5723 12.5025 1.96401 15.5872 3.5465 18.1369C4.05571 18.9632 5.2465 20.238 6.05341 20.8439C7.15802 21.6702 8.61516 22.3155 10.0645 22.6303C10.9576 22.827 13.0414 22.827 13.9345 22.6303C15.3838 22.3155 16.841 21.6702 17.9456 20.8439C18.7525 20.238 19.9433 18.9632 20.4525 18.1369C22.5755 14.7059 22.5128 10.5351 20.2723 7.1592C18.9092 5.10531 16.8018 3.63375 14.334 3.01207C13.676 2.84682 13.2921 2.80747 12.2737 2.78386C11.5843 2.76812 10.8244 2.78386 10.5815 2.82321ZM9.3594 6.31719C9.50041 6.37227 9.74327 6.56901 9.91562 6.74213L10.2211 7.06477L10.6755 6.67918C10.9262 6.4667 11.2004 6.27784 11.2944 6.24636C11.5529 6.1598 11.9446 6.3408 12.3129 6.71852L12.6497 7.06477L13.0884 6.67918C13.7935 6.06537 14.0207 6.07324 14.7649 6.75C15.2428 7.19855 15.423 7.56054 15.2976 7.86744C15.2585 7.96974 15.0078 8.28452 14.7414 8.56781C13.7465 9.63017 13.5115 10.6138 14.0207 11.6526C14.2244 12.0697 14.4986 12.4002 15.4387 13.3366C16.8801 14.7924 17.0525 15.0915 17.0525 16.1617C17.0525 16.807 17.029 16.925 16.794 17.3972C16.5041 17.9953 15.5405 19.0812 15.1645 19.2386C14.8276 19.3803 14.6161 19.3016 14.0912 18.853L13.6368 18.4595L13.2294 18.853C13.0023 19.0734 12.7359 19.2701 12.6184 19.2937C12.3834 19.3566 12.07 19.1993 11.5686 18.7664L11.2082 18.4595L10.9419 18.7743C10.793 18.9474 10.5502 19.152 10.3935 19.2229C10.0018 19.4117 9.7276 19.3016 9.12437 18.7114C8.67 18.2707 8.63083 18.2156 8.63083 17.893C8.63083 17.5782 8.67783 17.5074 9.21838 16.9093C9.97829 16.0751 10.3073 15.422 10.2603 14.8475C10.1976 14.0606 9.82161 13.5491 8.30963 12.1484C7.9806 11.8414 7.59673 11.4165 7.46355 11.204C6.83682 10.2125 6.74281 9.01636 7.22069 8.04844C7.60456 7.26151 8.63083 6.23062 9.04603 6.20702C9.07737 6.20702 9.21838 6.25423 9.3594 6.31719ZM10.2325 9.25182C9.88313 9.94829 9.93304 10.7802 10.3448 11.496C10.6194 11.941 11.0561 12.3376 12.5162 13.4596C14.4005 14.9009 15.0369 15.5974 15.249 16.4003C15.3114 16.5938 15.4113 16.7679 15.4736 16.7775C15.5485 16.7872 15.6983 16.5551 15.8355 16.2649C16.0227 15.8102 16.0477 15.6555 15.9229 15.2105C15.7232 14.4463 15.1742 13.8659 13.5145 12.6664C11.5428 11.2348 11.1061 10.6931 10.5819 9.10672L10.4696 8.77783L10.2325 9.25182ZM8.29965 11.3708C7.97223 10.7336 7.89829 9.73908 8.15178 9.14044C8.36303 8.63837 8.46865 8.65768 8.55314 9.19838C8.58483 9.42045 8.77495 9.91287 8.98619 10.3087C9.36643 11.0522 9.55654 11.2453 11.5528 12.9929C12.6301 13.9295 13.0103 14.5764 12.9998 15.4261C12.9998 15.822 12.9259 16.1309 12.778 16.3916L12.5562 16.7778L12.4717 16.3916C12.271 15.3875 11.8168 14.7985 10.0002 13.1571C8.98619 12.2495 8.47921 11.7088 8.29965 11.3708Z" fill="#333333"/>
</svg>
