<svg width="24" height="24" viewBox="0 0 24 24" fill="none" xmlns="http://www.w3.org/2000/svg">
<path d="M17.65 6.35097C16.02 4.72097 13.71 3.78097 11.17 4.04097C7.50002 4.41097 4.48002 7.39097 4.07002 11.061C3.52002 15.911 7.27002 20.001 12 20.001C15.19 20.001 17.93 18.131 19.21 15.441C19.53 14.771 19.05 14.001 18.31 14.001C17.94 14.001 17.59 14.201 17.43 14.531C16.3 16.961 13.59 18.501 10.63 17.841C8.41002 17.351 6.62002 15.541 6.15002 13.321C5.31002 9.44097 8.26002 6.00097 12 6.00097C13.66 6.00097 15.14 6.69097 16.22 7.78097L14.71 9.29097C14.08 9.92097 14.52 11.001 15.41 11.001H19C19.55 11.001 20 10.551 20 10.001V6.41097C20 5.52097 18.92 5.07097 18.29 5.70097L17.65 6.35097Z" fill="#4D4D4D"/>
</svg>
