<svg width="24" height="24" viewBox="0 0 24 24" fill="none" xmlns="http://www.w3.org/2000/svg">
<path d="M5 6C4.71667 6 4.47917 5.90417 4.2875 5.7125C4.09583 5.52083 4 5.28333 4 5C4 4.71667 4.09583 4.47917 4.2875 4.2875C4.47917 4.09583 4.71667 4 5 4H19C19.2833 4 19.5208 4.09583 19.7125 4.2875C19.9042 4.47917 20 4.71667 20 5C20 5.28333 19.9042 5.52083 19.7125 5.7125C19.5208 5.90417 19.2833 6 19 6H5ZM5 20C4.71667 20 4.47917 19.9042 4.2875 19.7125C4.09583 19.5208 4 19.2833 4 19V14H3.825C3.50833 14 3.25 13.8792 3.05 13.6375C2.85 13.3958 2.78333 13.1167 2.85 12.8L3.85 7.8C3.9 7.56667 4.01667 7.375 4.2 7.225C4.38333 7.075 4.59167 7 4.825 7H19.175C19.4083 7 19.6167 7.075 19.8 7.225C19.9833 7.375 20.1 7.56667 20.15 7.8L21.15 12.8C21.2167 13.1167 21.15 13.3958 20.95 13.6375C20.75 13.8792 20.4917 14 20.175 14H20V19C20 19.2833 19.9042 19.5208 19.7125 19.7125C19.5208 19.9042 19.2833 20 19 20C18.7167 20 18.4792 19.9042 18.2875 19.7125C18.0958 19.5208 18 19.2833 18 19V14H14V19C14 19.2833 13.9042 19.5208 13.7125 19.7125C13.5208 19.9042 13.2833 20 13 20H5ZM6 18H12V14H6V18Z" fill="#333333"/>
</svg>
