<svg width="52" height="53" viewBox="0 0 52 53" fill="none" xmlns="http://www.w3.org/2000/svg">
<rect y="0.777832" width="52" height="52" rx="17" fill="#8D191D"/>
<path d="M38.4932 22.2082C37.1863 21.0295 35.3436 20.5404 33.7185 20.1072C33.447 20.035 33.1845 19.9646 32.9328 19.8942C31.7122 19.5494 30.8061 19.2768 30.2381 18.8905C29.3356 18.2768 29.2098 17.8093 29.7688 16.71L29.785 16.6757C29.9288 16.3689 30.3693 15.2028 29.8479 14.3779C29.2601 13.4483 27.2251 13.8761 25.4813 13.8761H25.2548C22.9483 13.8761 21.8139 14.2227 20.8378 15.127C20.151 15.7642 20.6526 16.3093 20.7245 16.4916C20.8072 16.7443 20.9996 17.1126 21.0643 17.2877C21.2207 17.7028 21.0049 18.3147 20.951 18.6523C20.8413 19.3256 19.831 19.7768 18.5726 20.2443C17.983 20.4646 17.2639 20.7804 16.7605 21.0404C15.8293 21.5205 14.7848 21.6162 14.188 22.0007L13.9021 22.1848C10.6357 24.2696 9.44019 26.8418 10.3498 29.831L10.3624 29.8689C10.3624 29.8689 10.3355 29.9772 10.3229 30.0205C10.2114 30.4267 9.94714 31.3797 10.5296 33.4483C11.1606 35.692 13.7116 37.0603 18.463 38.4375C20.1564 38.9285 24.7047 39.5747 28.4277 39.5747C29.2924 39.5747 30.1625 39.4249 30.8061 39.3473C34.1751 38.9465 34.7647 38.9556 35.9962 38.0476C36.2245 37.878 36.4762 37.6938 36.7728 37.4881C38.4626 36.3166 39.5197 34.822 40.1076 33.7751L40.1381 33.7299L40.1579 33.683C40.5588 32.9538 40.7853 32.3563 40.9039 31.9826C42.1264 28.1469 40.575 24.0855 38.4932 22.2082Z" fill="white"/>
<path d="M28.8993 39.8794C25.0673 39.8794 20.0924 39.1677 18.3501 38.6794C13.4615 37.3047 10.9903 35.694 10.3405 33.4544C9.74292 31.3914 10.0129 30.4401 10.1281 30.0329C10.1407 29.9915 10.1677 29.8816 10.1677 29.8816L10.1551 29.8437C9.21915 26.8601 10.4503 24.2926 13.8125 22.2116L14.1077 22.0278C14.7215 21.6441 15.535 21.2008 16.4944 20.7216C17.0127 20.4639 17.7255 20.1036 18.3321 19.8856C19.6262 19.4189 20.5603 18.9811 20.6719 18.3072C20.7277 17.9703 20.8357 17.7253 20.6755 17.3109C20.6089 17.1361 20.5298 16.9325 20.4452 16.6803C20.3714 16.4983 19.8134 15.7272 20.5208 15.0912C21.5233 14.1885 23.118 13.6966 25.4921 13.6966L25.6595 13.6948C27.4522 13.6948 29.6193 13.493 30.224 14.4209C30.7604 15.2461 30.3086 16.4082 30.161 16.7145L30.143 16.7487C29.5653 17.8442 29.6967 18.3127 30.6254 18.9252C31.2086 19.3108 32.1427 19.5829 33.3991 19.927C33.6583 19.9973 33.9282 20.0675 34.2072 20.1396C35.8793 20.572 37.7746 21.0603 39.121 22.2368C41.2647 24.1088 42.8612 28.1645 41.6012 31.9914C41.4788 32.3644 41.2449 32.9625 40.8327 33.6886L40.8111 33.7355L40.7787 33.7805C40.1739 34.8255 39.0868 36.3174 37.3463 37.4867C37.0421 37.6921 36.7829 37.8759 36.5471 38.0452C35.28 38.9515 34.7022 39.3659 31.2356 39.7659C30.575 39.8398 29.7885 39.8794 28.8993 39.8794ZM21.8149 18.5108C21.5521 20.5162 18.6381 22.5954 16.9245 23.6566C16.8237 23.7197 16.6564 23.8458 16.48 23.9791C16.2748 24.134 16.0408 24.3106 15.9112 24.3863L15.5584 24.5899C13.8377 25.5718 11.694 26.7952 11.0695 30.0473C11.0587 30.0834 10.7743 31.195 11.379 33.2851C12.081 35.7048 15.0184 36.5948 18.7388 37.7209L18.9188 37.775C19.9574 38.0885 24.1278 38.8434 28.2945 38.8434C29.6229 38.8434 30.8396 38.7659 31.9123 38.6128C36.2501 37.993 39.1498 34.3301 39.6879 33.3823C41.1477 29.95 38.1724 25.4385 35.4654 23.4962C34.605 22.8782 33.7716 22.372 32.9653 21.8819C31.3472 20.8981 29.8209 19.9684 29.1693 18.6189C29.0091 18.3379 28.9389 17.4514 28.9227 17.3235C28.8939 17.0767 29.7093 16.0713 29.7093 16.0713C29.7093 16.0713 28.3809 16.3776 27.8842 16.3776C27.1858 16.3758 26.6116 16.3181 26.0267 16.0839C25.4399 15.8479 24.8855 15.8587 24.2574 15.8587C23.9802 15.8587 22.7184 16.3866 22.4017 16.3866C22.0003 16.3866 21.1561 16.201 21.1561 16.201C21.1561 16.201 21.8707 17.9991 21.8149 18.5108ZM32.9041 20.9378C33.1075 21.0639 33.3199 21.1936 33.5395 21.3251C34.3224 21.8026 35.208 22.3395 36.0863 22.9719C37.9132 24.2836 40.8003 27.5573 41.1117 30.5608L41.1387 29.5429C41.2575 26.5808 39.7617 24.1845 38.4442 23.0332C36.9953 21.7684 34.9704 21.2134 33.1831 20.7252L32.3479 20.5702L32.9041 20.9378ZM19.817 20.0225C18.7982 20.5792 17.8083 21.0675 16.9695 21.4855C15.8554 22.0422 14.8097 22.5629 14.2337 22.9197C11.8938 24.3683 10.7077 25.9502 10.6087 27.7555V28.6798L10.8787 27.8276C12.0252 25.5214 14.0393 24.3557 15.5098 23.5034C15.7546 23.3629 15.985 23.2296 16.1866 23.1035C17.7939 22.1089 19.0412 21.2224 19.988 20.2477L20.6737 19.6207L19.817 20.0225ZM24.1926 15.1975C24.9809 15.1975 25.6343 15.2083 26.266 15.4605C26.9698 15.7434 27.5386 15.5758 28.0749 15.5758C28.1289 15.5758 28.1847 15.574 28.2387 15.5722C28.8363 15.5452 30.4238 15.2731 29.4339 14.6569C28.4871 14.0678 26.7052 14.3218 25.3931 14.2425C25.2077 14.2317 22.4394 14.147 21.4207 15.0875C21.1057 15.3794 21.9679 15.4929 22.3369 15.4929C22.5744 15.4929 22.839 15.4497 23.1216 15.3632C23.4834 15.2515 23.8344 15.1975 24.1926 15.1975Z" fill="#132A3E"/>
<path d="M14.2463 32.1031C13.9169 32.1031 13.5245 31.9896 13.5245 31.4527C13.5245 30.314 13.9259 28.5393 17.3889 26.3015C19.7126 24.8007 21.2587 22.9269 21.8797 21.7774C21.8797 21.7792 21.8797 21.7792 21.8833 21.7792C21.8887 21.7792 21.8977 21.7774 21.9121 21.7774C21.9877 21.7774 22.0633 21.8188 22.0741 21.8404C21.6169 22.8764 20.0348 25.2169 18.0927 26.8817C15.4486 29.1465 14.8403 30.1248 14.986 31.8671C14.9608 31.932 14.6477 32.1031 14.2463 32.1031Z" fill="#132A3E"/>
<path d="M31.4588 32.4905C31.1294 32.4905 30.818 32.3806 30.665 32.2094C30.5768 32.1121 30.5408 32.0022 30.5534 31.8707C30.6506 30.8942 30.5876 29.2348 30.0962 27.7754C29.9451 27.3267 29.6895 26.7916 29.3925 26.17C28.8633 25.0601 28.2045 23.68 27.7528 22.0062C27.7492 21.99 27.7456 21.9666 27.7546 21.9558C27.7672 21.9377 27.8104 21.9215 27.8662 21.9215C27.9472 21.9215 28.012 21.9558 28.0174 21.9882C28.1254 22.5251 29.2773 24.9953 30.6506 27.3087C31.8889 29.3951 32.0761 31.15 32.0167 32.2545C32.0077 32.3896 31.7684 32.4905 31.4588 32.4905Z" fill="#132A3E"/>
<path d="M36.4013 31.8869C36.1295 31.8869 35.9747 31.6671 35.9747 31.2851C35.9747 29.6996 34.8444 27.7411 32.8717 25.9106C31.5722 24.7052 30.4202 22.8206 30.2762 22.4152C30.2708 22.4152 30.2978 22.4044 30.341 22.4044C30.4112 22.4044 30.4598 22.4296 30.4688 22.4404C30.989 23.3377 32.7205 25.0529 33.5611 25.8349C35.2998 27.4492 36.9971 29.2005 36.9971 31.2851C36.9989 31.6401 36.6839 31.8869 36.4013 31.8869Z" fill="#132A3E"/>
<path d="M25.2167 31.3284C25.0691 31.3284 24.9791 31.2815 24.9503 31.1878C24.2664 28.9411 25.3967 24.9052 25.8233 23.3863C25.8827 23.1719 25.9295 23.0098 25.9511 22.9161C25.9691 22.844 26.0645 22.8386 26.0933 22.8386C26.1617 22.8386 26.2084 22.8638 26.2156 22.8746C25.7135 25.6151 25.4219 27.7844 26.2121 30.568C26.239 30.6617 26.2103 30.7662 26.1275 30.8761C25.9421 31.1194 25.5245 31.3284 25.2167 31.3284Z" fill="#132A3E"/>
<path d="M19.7162 33.5589C19.565 33.5589 19.0592 33.5211 18.917 33.0364C18.3645 31.159 18.701 29.8419 20.1968 28.0042C21.3091 26.6403 23.3592 23.7917 23.9964 21.7648C24.0018 21.7648 24.0414 21.745 24.108 21.745C24.1692 21.745 24.2142 21.763 24.2286 21.7828C24.2394 21.7954 24.234 21.8206 24.2304 21.8404C23.7354 23.6818 22.3981 26.561 21.1201 28.5375C20.312 29.7879 19.691 31.0095 20.2598 33.3013C20.2652 33.3229 20.267 33.3499 20.2382 33.386C20.1752 33.4688 19.9826 33.5589 19.7162 33.5589Z" fill="#132A3E"/>
</svg>
