<svg width="16" height="16" viewBox="0 0 16 16" fill="none" xmlns="http://www.w3.org/2000/svg">
<path d="M11.7667 4.23268C10.6801 3.14601 9.14005 2.51934 7.44672 2.69268C5.00005 2.93934 2.98672 4.92601 2.71339 7.37268C2.34672 10.606 4.84672 13.3327 8.00005 13.3327C10.1267 13.3327 11.9534 12.086 12.8067 10.2927C13.0201 9.84601 12.7001 9.33268 12.2067 9.33268C11.9601 9.33268 11.7267 9.46601 11.6201 9.68601C10.8667 11.306 9.06005 12.3327 7.08672 11.8927C5.60672 11.566 4.41339 10.3593 4.10005 8.87934C3.54005 6.29268 5.50672 3.99934 8.00005 3.99934C9.10672 3.99934 10.0934 4.45934 10.8134 5.18601L9.80672 6.19268C9.38672 6.61268 9.68005 7.33268 10.2734 7.33268H12.6667C13.0334 7.33268 13.3334 7.03268 13.3334 6.66601V4.27268C13.3334 3.67934 12.6134 3.37934 12.1934 3.79934L11.7667 4.23268Z" fill="white"/>
</svg>
