<svg width="25" height="25" viewBox="0 0 25 25" fill="none" xmlns="http://www.w3.org/2000/svg">
<path d="M7.33331 21.5557C6.78331 21.5557 6.31248 21.3598 5.92081 20.9682C5.52915 20.5765 5.33331 20.1057 5.33331 19.5557V6.55566C5.04998 6.55566 4.81248 6.45983 4.62081 6.26816C4.42915 6.0765 4.33331 5.839 4.33331 5.55566C4.33331 5.27233 4.42915 5.03483 4.62081 4.84316C4.81248 4.6515 5.04998 4.55566 5.33331 4.55566H9.33331C9.33331 4.27233 9.42915 4.03483 9.62081 3.84316C9.81248 3.6515 10.05 3.55566 10.3333 3.55566H14.3333C14.6166 3.55566 14.8541 3.6515 15.0458 3.84316C15.2375 4.03483 15.3333 4.27233 15.3333 4.55566H19.3333C19.6166 4.55566 19.8541 4.6515 20.0458 4.84316C20.2375 5.03483 20.3333 5.27233 20.3333 5.55566C20.3333 5.839 20.2375 6.0765 20.0458 6.26816C19.8541 6.45983 19.6166 6.55566 19.3333 6.55566V19.5557C19.3333 20.1057 19.1375 20.5765 18.7458 20.9682C18.3541 21.3598 17.8833 21.5557 17.3333 21.5557H7.33331ZM7.33331 6.55566V19.5557H17.3333V6.55566H7.33331ZM9.33331 16.5557C9.33331 16.839 9.42915 17.0765 9.62081 17.2682C9.81248 17.4598 10.05 17.5557 10.3333 17.5557C10.6166 17.5557 10.8541 17.4598 11.0458 17.2682C11.2375 17.0765 11.3333 16.839 11.3333 16.5557V9.55566C11.3333 9.27233 11.2375 9.03483 11.0458 8.84316C10.8541 8.6515 10.6166 8.55566 10.3333 8.55566C10.05 8.55566 9.81248 8.6515 9.62081 8.84316C9.42915 9.03483 9.33331 9.27233 9.33331 9.55566V16.5557ZM13.3333 16.5557C13.3333 16.839 13.4291 17.0765 13.6208 17.2682C13.8125 17.4598 14.05 17.5557 14.3333 17.5557C14.6166 17.5557 14.8541 17.4598 15.0458 17.2682C15.2375 17.0765 15.3333 16.839 15.3333 16.5557V9.55566C15.3333 9.27233 15.2375 9.03483 15.0458 8.84316C14.8541 8.6515 14.6166 8.55566 14.3333 8.55566C14.05 8.55566 13.8125 8.6515 13.6208 8.84316C13.4291 9.03483 13.3333 9.27233 13.3333 9.55566V16.5557Z" fill="#111111"/>
</svg>
