<svg width="25" height="25" viewBox="0 0 25 25" fill="none" xmlns="http://www.w3.org/2000/svg">
<path d="M5.33331 19.5557H6.73331L15.3583 10.9307L13.9583 9.53066L5.33331 18.1557V19.5557ZM19.6333 9.48066L15.3833 5.28066L16.7833 3.88066C17.1666 3.49733 17.6375 3.30566 18.1958 3.30566C18.7541 3.30566 19.225 3.49733 19.6083 3.88066L21.0083 5.28066C21.3916 5.664 21.5916 6.1265 21.6083 6.66816C21.625 7.20983 21.4416 7.67233 21.0583 8.05566L19.6333 9.48066ZM4.33331 21.5557C4.04998 21.5557 3.81248 21.4598 3.62081 21.2682C3.42915 21.0765 3.33331 20.839 3.33331 20.5557V17.7307C3.33331 17.5973 3.35831 17.4682 3.40831 17.3432C3.45831 17.2182 3.53331 17.1057 3.63331 17.0057L13.9333 6.70566L18.1833 10.9557L7.88331 21.2557C7.78331 21.3557 7.67081 21.4307 7.54581 21.4807C7.42081 21.5307 7.29165 21.5557 7.15831 21.5557H4.33331ZM14.6583 10.2307L13.9583 9.53066L15.3583 10.9307L14.6583 10.2307Z" fill="#111111"/>
</svg>
