<svg width="24" height="24" viewBox="0 0 24 24" fill="none" xmlns="http://www.w3.org/2000/svg">
<path fill-rule="evenodd" clip-rule="evenodd" d="M9.21325 3.73845H14.7871C15.4712 3.73845 16.0258 4.29293 16.0258 4.9769V5.59613H7.97461V4.9769C7.97461 4.29293 8.52915 3.73845 9.21325 3.73845ZM6.73597 5.59613V4.9769C6.73597 3.60895 7.84505 2.5 9.21325 2.5H14.7871C16.1552 2.5 17.2644 3.60895 17.2644 4.9769V5.59613H17.5731C19.1578 5.59613 19.4314 6.79238 19.5973 8.36816L21.4227 18.0231C21.6151 19.8512 20.1816 21.4433 18.3432 21.4433H5.65698C3.81853 21.4433 2.38495 19.8512 2.5774 18.0231L4.40276 8.36816C4.56866 6.79238 4.8423 5.59613 6.427 5.59613H6.73597ZM13.7856 8.28943C14.0756 8.54208 14.0418 8.95436 13.8894 9.2971C13.1251 11.0154 14.399 11.7717 15.6897 12.538C16.3037 12.9025 16.9215 13.2693 17.3256 13.743C18.3318 14.9228 17.8761 16.8329 16.7621 17.8272C15.5022 18.9516 13.6963 19.4024 12.0152 19.4024C10.3374 19.4024 8.52438 18.9482 7.26828 17.8272C6.13861 16.819 5.63897 14.9927 6.70489 13.743C7.10398 13.2751 7.72032 12.9151 8.33481 12.5561C9.63117 11.799 10.9192 11.0466 10.1411 9.2971C9.98857 8.95436 9.95482 8.54208 10.2448 8.28943C11.2433 7.41961 12.7871 7.41961 13.7856 8.28943ZM12.0152 11.8717C11.4844 13.2985 11.4844 15.634 12.0152 17.0471C12.5461 15.634 12.5461 13.2985 12.0152 11.8717ZM10.6881 11.8657C11.3046 12.6941 10.5779 13.5133 9.85338 14.3301C9.33012 14.92 8.80797 15.5087 8.79379 16.0987C8.20612 15.2925 8.91412 14.4887 9.62578 13.6808C10.1559 13.0789 10.6881 12.4748 10.6881 11.8657ZM13.3424 11.8657C12.726 12.6941 13.4526 13.5133 14.1771 14.3301C14.7004 14.92 15.2226 15.5087 15.2367 16.0987C15.8244 15.2925 15.1163 14.4887 14.4047 13.6808C13.8745 13.0789 13.3424 12.4748 13.3424 11.8657Z" fill="#333333"/>
</svg>
