<svg width="25" height="25" viewBox="0 0 25 25" fill="none" xmlns="http://www.w3.org/2000/svg">
<path d="M18.5 13.7798H13.5V18.7798C13.5 19.3298 13.05 19.7798 12.5 19.7798C11.95 19.7798 11.5 19.3298 11.5 18.7798V13.7798H6.5C5.95 13.7798 5.5 13.3298 5.5 12.7798C5.5 12.2298 5.95 11.7798 6.5 11.7798H11.5V6.77979C11.5 6.22979 11.95 5.77979 12.5 5.77979C13.05 5.77979 13.5 6.22979 13.5 6.77979V11.7798H18.5C19.05 11.7798 19.5 12.2298 19.5 12.7798C19.5 13.3298 19.05 13.7798 18.5 13.7798Z" fill="white"/>
</svg>
