<svg width="24" height="25" viewBox="0 0 24 25" fill="none" xmlns="http://www.w3.org/2000/svg">
<path d="M18.3 5.87672C17.91 5.48672 17.28 5.48672 16.89 5.87672L12 10.7567L7.10997 5.86672C6.71997 5.47672 6.08997 5.47672 5.69997 5.86672C5.30997 6.25672 5.30997 6.88672 5.69997 7.27672L10.59 12.1667L5.69997 17.0567C5.30997 17.4467 5.30997 18.0767 5.69997 18.4667C6.08997 18.8567 6.71997 18.8567 7.10997 18.4667L12 13.5767L16.89 18.4667C17.28 18.8567 17.91 18.8567 18.3 18.4667C18.69 18.0767 18.69 17.4467 18.3 17.0567L13.41 12.1667L18.3 7.27672C18.68 6.89672 18.68 6.25672 18.3 5.87672Z" fill="#333333"/>
</svg>
