<svg width="24" height="25" viewBox="0 0 24 25" fill="none" xmlns="http://www.w3.org/2000/svg">
<path d="M5 21.834C4.45 21.834 3.97917 21.6382 3.5875 21.2465C3.19583 20.8548 3 20.384 3 19.834V5.83398C3 5.28398 3.19583 4.81315 3.5875 4.42148C3.97917 4.02982 4.45 3.83398 5 3.83398H16.175C16.4417 3.83398 16.6958 3.88398 16.9375 3.98398C17.1792 4.08398 17.3917 4.22565 17.575 4.40898L20.425 7.25898C20.6083 7.44232 20.75 7.65482 20.85 7.89648C20.95 8.13815 21 8.39232 21 8.65898V19.834C21 20.384 20.8042 20.8548 20.4125 21.2465C20.0208 21.6382 19.55 21.834 19 21.834H5ZM12 18.834C12.8333 18.834 13.5417 18.5423 14.125 17.959C14.7083 17.3757 15 16.6673 15 15.834C15 15.0007 14.7083 14.2923 14.125 13.709C13.5417 13.1257 12.8333 12.834 12 12.834C11.1667 12.834 10.4583 13.1257 9.875 13.709C9.29167 14.2923 9 15.0007 9 15.834C9 16.6673 9.29167 17.3757 9.875 17.959C10.4583 18.5423 11.1667 18.834 12 18.834ZM7 10.834H14C14.2833 10.834 14.5208 10.7382 14.7125 10.5465C14.9042 10.3548 15 10.1173 15 9.83398V7.83398C15 7.55065 14.9042 7.31315 14.7125 7.12148C14.5208 6.92982 14.2833 6.83398 14 6.83398H7C6.71667 6.83398 6.47917 6.92982 6.2875 7.12148C6.09583 7.31315 6 7.55065 6 7.83398V9.83398C6 10.1173 6.09583 10.3548 6.2875 10.5465C6.47917 10.7382 6.71667 10.834 7 10.834Z" fill="white"/>
</svg>
