<svg width="24" height="25" viewBox="0 0 24 25" fill="none" xmlns="http://www.w3.org/2000/svg">
<path d="M15.5 14.7777H14.71L14.43 14.5077C15.63 13.1077 16.25 11.1977 15.91 9.16773C15.44 6.38773 13.12 4.16773 10.32 3.82773C6.09001 3.30773 2.53002 6.86772 3.05002 11.0977C3.39002 13.8977 5.61002 16.2177 8.39002 16.6877C10.42 17.0277 12.33 16.4077 13.73 15.2077L14 15.4877V16.2777L18.25 20.5277C18.66 20.9377 19.33 20.9377 19.74 20.5277C20.15 20.1177 20.15 19.4477 19.74 19.0377L15.5 14.7777ZM9.50002 14.7777C7.01002 14.7777 5.00002 12.7677 5.00002 10.2777C5.00002 7.78773 7.01002 5.77773 9.50002 5.77773C11.99 5.77773 14 7.78773 14 10.2777C14 12.7677 11.99 14.7777 9.50002 14.7777Z" fill="#999999"/>
</svg>
