<svg width="24" height="25" viewBox="0 0 24 25" fill="none" xmlns="http://www.w3.org/2000/svg">
<path d="M16.7 13.2528L7.7 4.25283H20.825C21.2083 4.25283 21.5042 4.41533 21.7125 4.74033C21.9208 5.06533 21.925 5.4195 21.725 5.80283L18.175 12.2028C17.9917 12.5362 17.7542 12.7945 17.4625 12.9778C17.1708 13.1612 16.9167 13.2528 16.7 13.2528ZM7.875 22.2528C7.325 22.2528 6.85417 22.057 6.4625 21.6653C6.07083 21.2737 5.875 20.8028 5.875 20.2528C5.875 19.7028 6.07083 19.232 6.4625 18.8403C6.85417 18.4487 7.325 18.2528 7.875 18.2528C8.425 18.2528 8.89583 18.4487 9.2875 18.8403C9.67917 19.232 9.875 19.7028 9.875 20.2528C9.875 20.8028 9.67917 21.2737 9.2875 21.6653C8.89583 22.057 8.425 22.2528 7.875 22.2528ZM20.675 22.8528L15.025 17.2528H8.475C7.74167 17.2528 7.18333 16.9403 6.8 16.3153C6.41667 15.6903 6.39167 15.0362 6.725 14.3528L7.775 12.2028L5.975 8.15283L2.275 4.45283C2.09167 4.2695 2 4.03617 2 3.75283C2 3.4695 2.09167 3.23617 2.275 3.05283C2.45833 2.8695 2.69167 2.77783 2.975 2.77783C3.25833 2.77783 3.49167 2.8695 3.675 3.05283L22.075 21.4528C22.2583 21.6362 22.3542 21.8653 22.3625 22.1403C22.3708 22.4153 22.275 22.6528 22.075 22.8528C21.8917 23.0362 21.6583 23.1278 21.375 23.1278C21.0917 23.1278 20.8583 23.0362 20.675 22.8528ZM17.875 22.2528C17.325 22.2528 16.8542 22.057 16.4625 21.6653C16.0708 21.2737 15.875 20.8028 15.875 20.2528C15.875 19.7028 16.0708 19.232 16.4625 18.8403C16.8542 18.4487 17.325 18.2528 17.875 18.2528C18.425 18.2528 18.8958 18.4487 19.2875 18.8403C19.6792 19.232 19.875 19.7028 19.875 20.2528C19.875 20.8028 19.6792 21.2737 19.2875 21.6653C18.8958 22.057 18.425 22.2528 17.875 22.2528Z" fill="#8D191D"/>
</svg>
