<svg width="24" height="25" viewBox="0 0 24 25" fill="none" xmlns="http://www.w3.org/2000/svg">
<path d="M11.9999 16.7778C13.2499 16.7778 14.3124 16.3403 15.1874 15.4653C16.0624 14.5903 16.4999 13.5278 16.4999 12.2778C16.4999 11.0278 16.0624 9.96533 15.1874 9.09033C14.3124 8.21533 13.2499 7.77783 11.9999 7.77783C10.7499 7.77783 9.6874 8.21533 8.8124 9.09033C7.9374 9.96533 7.4999 11.0278 7.4999 12.2778C7.4999 13.5278 7.9374 14.5903 8.8124 15.4653C9.6874 16.3403 10.7499 16.7778 11.9999 16.7778ZM11.9999 14.9778C11.2499 14.9778 10.6124 14.7153 10.0874 14.1903C9.5624 13.6653 9.2999 13.0278 9.2999 12.2778C9.2999 11.5278 9.5624 10.8903 10.0874 10.3653C10.6124 9.84033 11.2499 9.57783 11.9999 9.57783C12.7499 9.57783 13.3874 9.84033 13.9124 10.3653C14.4374 10.8903 14.6999 11.5278 14.6999 12.2778C14.6999 13.0278 14.4374 13.6653 13.9124 14.1903C13.3874 14.7153 12.7499 14.9778 11.9999 14.9778ZM11.9999 19.7778C9.76657 19.7778 7.72907 19.1778 5.8874 17.9778C4.04574 16.7778 2.59157 15.1945 1.5249 13.2278C1.44157 13.0778 1.37907 12.9237 1.3374 12.7653C1.29574 12.607 1.2749 12.4445 1.2749 12.2778C1.2749 12.1112 1.29574 11.9487 1.3374 11.7903C1.37907 11.632 1.44157 11.4778 1.5249 11.3278C2.59157 9.36117 4.04574 7.77783 5.8874 6.57783C7.72907 5.37783 9.76657 4.77783 11.9999 4.77783C14.2332 4.77783 16.2707 5.37783 18.1124 6.57783C19.9541 7.77783 21.4082 9.36117 22.4749 11.3278C22.5582 11.4778 22.6207 11.632 22.6624 11.7903C22.7041 11.9487 22.7249 12.1112 22.7249 12.2778C22.7249 12.4445 22.7041 12.607 22.6624 12.7653C22.6207 12.9237 22.5582 13.0778 22.4749 13.2278C21.4082 15.1945 19.9541 16.7778 18.1124 17.9778C16.2707 19.1778 14.2332 19.7778 11.9999 19.7778ZM11.9999 17.7778C13.8832 17.7778 15.6124 17.282 17.1874 16.2903C18.7624 15.2987 19.9666 13.9612 20.7999 12.2778C19.9666 10.5945 18.7624 9.257 17.1874 8.26533C15.6124 7.27367 13.8832 6.77783 11.9999 6.77783C10.1166 6.77783 8.3874 7.27367 6.8124 8.26533C5.2374 9.257 4.03324 10.5945 3.1999 12.2778C4.03324 13.9612 5.2374 15.2987 6.8124 16.2903C8.3874 17.282 10.1166 17.7778 11.9999 17.7778Z" fill="#558950"/>
</svg>
