<svg width="24" height="25" viewBox="0 0 24 25" fill="none" xmlns="http://www.w3.org/2000/svg">
<path d="M19.7999 23.3776L15.5999 19.2276C15.0166 19.411 14.4249 19.5485 13.8249 19.6401C13.2249 19.7318 12.6166 19.7776 11.9999 19.7776C9.76657 19.7776 7.7249 19.1776 5.8749 17.9776C4.0249 16.7776 2.5749 15.1943 1.5249 13.2276C1.44157 13.0776 1.37907 12.9235 1.3374 12.7651C1.29574 12.6068 1.2749 12.4443 1.2749 12.2776C1.2749 12.111 1.29574 11.9485 1.3374 11.7901C1.37907 11.6318 1.44157 11.4776 1.5249 11.3276C1.89157 10.6776 2.28324 10.0443 2.6999 9.42764C3.11657 8.81097 3.5999 8.26097 4.1499 7.77764L1.3999 4.97764L2.7999 3.57764L21.1999 21.9776L19.7999 23.3776ZM11.9999 16.7776C12.1832 16.7776 12.3582 16.7693 12.5249 16.7526C12.6916 16.736 12.8582 16.7026 13.0249 16.6526L7.6249 11.2526C7.5749 11.4193 7.54157 11.586 7.5249 11.7526C7.50824 11.9193 7.4999 12.0943 7.4999 12.2776C7.4999 13.5276 7.9374 14.5901 8.8124 15.4651C9.6874 16.3401 10.7499 16.7776 11.9999 16.7776ZM19.2999 17.2276L16.1249 14.0776C16.2416 13.7943 16.3332 13.5026 16.3999 13.2026C16.4666 12.9026 16.4999 12.5943 16.4999 12.2776C16.4999 11.0276 16.0624 9.96514 15.1874 9.09014C14.3124 8.21514 13.2499 7.77764 11.9999 7.77764C11.6832 7.77764 11.3749 7.81097 11.0749 7.87764C10.7749 7.9443 10.4832 8.0443 10.1999 8.17764L7.6499 5.62764C8.3499 5.3443 9.0624 5.1318 9.7874 4.99014C10.5124 4.84847 11.2499 4.77764 11.9999 4.77764C14.2332 4.77764 16.2791 5.3818 18.1374 6.59014C19.9957 7.79847 21.4499 9.38597 22.4999 11.3526C22.5832 11.486 22.6457 11.6318 22.6874 11.7901C22.7291 11.9485 22.7499 12.111 22.7499 12.2776C22.7499 12.4443 22.7332 12.6068 22.6999 12.7651C22.6666 12.9235 22.6082 13.0693 22.5249 13.2026C22.1249 13.986 21.6624 14.7193 21.1374 15.4026C20.6124 16.086 19.9999 16.6943 19.2999 17.2276ZM14.6749 12.6276L11.6749 9.62764C12.1082 9.5443 12.5291 9.57764 12.9374 9.72764C13.3457 9.87764 13.6916 10.111 13.9749 10.4276C14.2582 10.7276 14.4624 11.0693 14.5874 11.4526C14.7124 11.836 14.7416 12.2276 14.6749 12.6276Z" fill="#8D191D"/>
</svg>
