<svg width="36" height="37" viewBox="0 0 36 37" fill="none" xmlns="http://www.w3.org/2000/svg">
<path fill-rule="evenodd" clip-rule="evenodd" d="M5.65436 24.7543C5.65436 25.5897 5.94199 26.3862 6.46804 27.0306L3.59799 29.8355C1.73156 31.6596 4.70082 34.3867 6.47772 32.6501L9.34812 29.8449C10.0277 30.3736 10.8533 30.6385 11.6764 30.6385C12.6316 30.6385 13.592 30.2822 14.3223 29.5685L16.6022 27.3403C17.0144 26.9375 17.2763 26.4571 17.5095 25.9435C18.6458 25.4146 19.3968 24.6747 19.928 23.5788C21.9934 22.6817 23.6341 21.0758 24.5488 19.0645C25.6619 18.5464 26.4209 17.8243 26.9434 16.7464C29.1519 15.7239 30.362 13.0499 28.6213 11.0081L29.3309 10.3145C30.1237 10.8445 31.2151 10.7656 31.9189 10.0777C34.2194 7.82942 32.4813 3.91318 29.3062 3.91318C28.3217 3.91318 27.3896 4.29028 26.6932 4.97088C25.8521 5.79291 25.465 6.9892 25.6631 8.13267C23.5714 6.52992 20.8987 7.71397 19.8711 9.83142C18.7689 10.3445 18.0291 11.0857 17.4984 12.1746C15.4798 13.0514 13.7785 14.7143 12.8812 16.6873C11.7609 17.2088 11.0024 17.9415 10.4608 19.0528C9.93508 19.2811 9.44323 19.5373 9.0305 19.9402L6.75058 22.1684C6.04553 22.8574 5.65436 23.7794 5.65436 24.7543ZM25.7523 9.88284L27.087 8.57834C26.3013 7.00002 27.5347 5.11481 29.3062 5.11481C31.4245 5.11481 32.5847 7.7277 31.0496 9.228C30.3027 9.958 29.2063 8.79968 29.9085 8.11281C30.419 7.61392 30.0481 6.69144 29.3062 6.69144C28.5761 6.69144 28.174 7.59546 28.7036 8.11308C29.0144 8.41682 29.0144 8.92453 28.7036 9.22827L26.8933 10.9975L27.5347 11.6244C28.7191 12.7975 28.2781 14.7988 26.7944 15.4858L21.1601 9.97927C21.86 8.53704 23.9374 8.10911 25.1226 9.2675L25.7523 9.88284ZM4.46732 30.6852L7.04993 28.1612L8.19101 29.2764L5.6084 31.8004C4.87268 32.5194 3.73137 31.4045 4.46732 30.6852ZM17.692 13.4055L23.2892 18.8757C22.6984 20.175 21.016 21.7912 19.7381 22.3464L14.1408 16.8761C14.7087 15.6273 16.3628 13.9828 17.692 13.4055ZM6.88381 24.7543C6.88381 25.3871 7.12769 25.9831 7.57113 26.4407L9.94916 28.7648C10.4325 29.2124 11.054 29.4368 11.6764 29.4368C12.3199 29.4368 12.9632 29.1974 13.4529 28.7188L15.7329 26.4906C15.9567 26.2719 16.1289 26.0215 16.2504 25.754L10.6535 20.284C10.3801 20.4028 10.1239 20.5711 9.89983 20.7899L7.61991 23.0181C7.14525 23.482 6.88381 24.0984 6.88381 24.7543ZM18.6157 23.4795C18.371 23.9842 17.9277 24.4179 17.4116 24.6582L11.7753 19.1498C12.0208 18.646 12.4646 18.2122 12.9802 17.9722L18.6157 23.4795ZM24.4492 17.7799C24.9654 17.5396 25.4087 17.1059 25.6533 16.6012L20.0182 11.0939C19.5029 11.3338 19.0586 11.7675 18.813 12.2715L24.4492 17.7799Z" fill="#333333"/>
</svg>
