<svg width="24" height="25" viewBox="0 0 24 25" fill="none" xmlns="http://www.w3.org/2000/svg">
<path d="M19 9.7798H17.44C17.77 9.2298 17.97 8.5998 17.99 7.9198C18.03 6.8898 17.56 5.9298 16.83 5.2098C15.29 3.6698 14.09 3.6498 13.01 3.9198C12.2 3.2298 11.16 2.7998 10 2.7998C8.11 2.7998 6.49 3.9098 5.73 5.5098C4.15 6.0398 3 7.5198 3 9.2798C3 11.1398 4.28 12.6898 6 13.1398V19.7798C6 20.8798 6.9 21.7798 8 21.7798H15C16.1 21.7798 17 20.8798 17 19.7798H19C20.1 19.7798 21 18.8798 21 17.7798V11.7798C21 10.6798 20.1 9.7798 19 9.7798ZM7 11.2798C5.9 11.2798 5 10.3798 5 9.2798C5 8.4298 5.55 7.6798 6.37 7.3998L7.17 7.1298L7.53 6.3698C8 5.3998 8.94 4.7998 10 4.7998C10.79 4.7998 11.39 5.1498 11.74 5.4498L12.52 6.0998C12.52 6.0998 13.16 5.7798 13.99 5.7798C15.09 5.7798 15.99 6.6798 15.99 7.7798H12.99C9.67 7.7798 9.15 11.2798 7 11.2798ZM19 17.7798H17V11.7798H19V17.7798Z" fill="#4D4D4D"/>
</svg>
