<svg width="24" height="25" viewBox="0 0 24 25" fill="none" xmlns="http://www.w3.org/2000/svg">
<path d="M12 2.77979C6.48 2.77979 2 7.25979 2 12.7798C2 18.2998 6.48 22.7798 12 22.7798C17.52 22.7798 22 18.2998 22 12.7798C22 7.25979 17.52 2.77979 12 2.77979ZM12 20.7798C7.59 20.7798 4 17.1898 4 12.7798C4 8.36979 7.59 4.77979 12 4.77979C16.41 4.77979 20 8.36979 20 12.7798C20 17.1898 16.41 20.7798 12 20.7798ZM15.88 9.06979L10 14.9498L8.12 13.0698C7.73 12.6798 7.1 12.6798 6.71 13.0698C6.32 13.4598 6.32 14.0898 6.71 14.4798L9.3 17.0698C9.69 17.4598 10.32 17.4598 10.71 17.0698L17.3 10.4798C17.69 10.0898 17.69 9.45978 17.3 9.06979C16.91 8.67979 16.27 8.67979 15.88 9.06979Z" fill="#333333"/>
</svg>
