<svg width="24" height="25" viewBox="0 0 24 25" fill="none" xmlns="http://www.w3.org/2000/svg">
<path d="M13 3.86001V10.78H21C21 6.75001 18.02 3.41001 14.14 2.86001C13.54 2.77001 13 3.25001 13 3.86001ZM19.32 16.67C20.37 15.32 21 13.62 21 11.78H6.44L5.76 10.35C5.6 10 5.24 9.78001 4.86 9.78001H3C2.45 9.78001 2 10.23 2 10.78C2 11.33 2.45 11.78 3 11.78H4.22C4.22 11.78 6.11 15.85 6.34 16.2C5.01 16.91 4.2 18.47 4.6 20.14C4.9 21.4 5.94 22.41 7.2 22.69C9.3 23.15 11.18 21.73 11.45 19.78H13.53C13.8 21.72 15.67 23.14 17.75 22.7C19.02 22.43 20.06 21.43 20.38 20.17C20.73 18.78 20.24 17.49 19.32 16.67ZM8 20.78C7.17 20.78 6.5 20.11 6.5 19.28C6.5 18.45 7.17 17.78 8 17.78C8.83 17.78 9.5 18.45 9.5 19.28C9.5 20.11 8.83 20.78 8 20.78ZM17 20.78C16.17 20.78 15.5 20.11 15.5 19.28C15.5 18.45 16.17 17.78 17 17.78C17.83 17.78 18.5 18.45 18.5 19.28C18.5 20.11 17.83 20.78 17 20.78Z" fill="#4D4D4D"/>
</svg>
