<svg width="16" height="17" viewBox="0 0 16 17" fill="none" xmlns="http://www.w3.org/2000/svg">
<path d="M6 12.7799C5.63333 12.7799 5.31944 12.6494 5.05833 12.3883C4.79722 12.1272 4.66667 11.8133 4.66667 11.4466V3.44661C4.66667 3.07995 4.79722 2.76606 5.05833 2.50495C5.31944 2.24384 5.63333 2.11328 6 2.11328H12C12.3667 2.11328 12.6806 2.24384 12.9417 2.50495C13.2028 2.76606 13.3333 3.07995 13.3333 3.44661V11.4466C13.3333 11.8133 13.2028 12.1272 12.9417 12.3883C12.6806 12.6494 12.3667 12.7799 12 12.7799H6ZM6 11.4466H12V3.44661H6V11.4466ZM3.33333 15.4466C2.96667 15.4466 2.65278 15.3161 2.39167 15.0549C2.13056 14.7938 2 14.4799 2 14.1133V5.44661C2 5.25773 2.06389 5.09939 2.19167 4.97161C2.31944 4.84384 2.47778 4.77995 2.66667 4.77995C2.85556 4.77995 3.01389 4.84384 3.14167 4.97161C3.26944 5.09939 3.33333 5.25773 3.33333 5.44661V14.1133H10C10.1889 14.1133 10.3472 14.1772 10.475 14.3049C10.6028 14.4327 10.6667 14.5911 10.6667 14.7799C10.6667 14.9688 10.6028 15.1272 10.475 15.2549C10.3472 15.3827 10.1889 15.4466 10 15.4466H3.33333Z" fill="#333333"/>
</svg>
