<svg width="24" height="25" viewBox="0 0 24 25" fill="none" xmlns="http://www.w3.org/2000/svg">
<path d="M12 22.78C11.7166 22.78 11.4791 22.6841 11.2875 22.4925C11.0958 22.3008 11 22.0633 11 21.78V9.77998H3.57495C3.32495 9.77998 3.16662 9.66331 3.09995 9.42998C3.03328 9.19665 3.09995 9.01331 3.29995 8.87998L10.85 3.57998C11.2 3.34665 11.5833 3.22998 12 3.22998C12.4166 3.22998 12.8 3.34665 13.15 3.57998L20.7 8.87998C20.9 9.01331 20.9666 9.19665 20.9 9.42998C20.8333 9.66331 20.675 9.77998 20.425 9.77998H13V21.78C13 22.0633 12.9041 22.3008 12.7125 22.4925C12.5208 22.6841 12.2833 22.78 12 22.78ZM3.99995 22.78C3.71662 22.78 3.47912 22.6841 3.28745 22.4925C3.09578 22.3008 2.99995 22.0633 2.99995 21.78V17.53L2.37495 14.105C2.32495 13.8216 2.37495 13.5716 2.52495 13.355C2.67495 13.1383 2.89162 13.005 3.17495 12.955C3.44162 12.905 3.68745 12.9591 3.91245 13.1175C4.13745 13.2758 4.27495 13.4883 4.32495 13.755L4.89995 16.78H7.99995C8.28328 16.78 8.52078 16.8758 8.71245 17.0675C8.90412 17.2591 8.99995 17.4966 8.99995 17.78V21.78C8.99995 22.0633 8.90412 22.3008 8.71245 22.4925C8.52078 22.6841 8.28328 22.78 7.99995 22.78C7.71662 22.78 7.47912 22.6841 7.28745 22.4925C7.09578 22.3008 6.99995 22.0633 6.99995 21.78V18.78H4.99995V21.78C4.99995 22.0633 4.90412 22.3008 4.71245 22.4925C4.52078 22.6841 4.28328 22.78 3.99995 22.78ZM16 22.78C15.7166 22.78 15.4791 22.6841 15.2875 22.4925C15.0958 22.3008 15 22.0633 15 21.78V17.78C15 17.4966 15.0958 17.2591 15.2875 17.0675C15.4791 16.8758 15.7166 16.78 16 16.78H19.1L19.675 13.755C19.725 13.4883 19.8625 13.2758 20.0875 13.1175C20.3125 12.9591 20.5583 12.905 20.825 12.955C21.1083 13.005 21.325 13.1383 21.475 13.355C21.625 13.5716 21.675 13.8216 21.625 14.105L21 17.53V21.78C21 22.0633 20.9041 22.3008 20.7125 22.4925C20.5208 22.6841 20.2833 22.78 20 22.78C19.7166 22.78 19.4791 22.6841 19.2875 22.4925C19.0958 22.3008 19 22.0633 19 21.78V18.78H17V21.78C17 22.0633 16.9041 22.3008 16.7125 22.4925C16.5208 22.6841 16.2833 22.78 16 22.78Z" fill="#4D4D4D"/>
</svg>
