<svg width="24" height="25" viewBox="0 0 24 25" fill="none" xmlns="http://www.w3.org/2000/svg">
<path d="M7 21.7798C6.45 21.7798 5.97917 21.584 5.5875 21.1923C5.19583 20.8006 5 20.3298 5 19.7798V6.77979C4.71667 6.77979 4.47917 6.68395 4.2875 6.49229C4.09583 6.30062 4 6.06312 4 5.77979C4 5.49645 4.09583 5.25895 4.2875 5.06729C4.47917 4.87562 4.71667 4.77979 5 4.77979H9C9 4.49645 9.09583 4.25895 9.2875 4.06729C9.47917 3.87562 9.71667 3.77979 10 3.77979H14C14.2833 3.77979 14.5208 3.87562 14.7125 4.06729C14.9042 4.25895 15 4.49645 15 4.77979H19C19.2833 4.77979 19.5208 4.87562 19.7125 5.06729C19.9042 5.25895 20 5.49645 20 5.77979C20 6.06312 19.9042 6.30062 19.7125 6.49229C19.5208 6.68395 19.2833 6.77979 19 6.77979V19.7798C19 20.3298 18.8042 20.8006 18.4125 21.1923C18.0208 21.584 17.55 21.7798 17 21.7798H7ZM7 6.77979V19.7798H17V6.77979H7ZM9 16.7798C9 17.0631 9.09583 17.3006 9.2875 17.4923C9.47917 17.684 9.71667 17.7798 10 17.7798C10.2833 17.7798 10.5208 17.684 10.7125 17.4923C10.9042 17.3006 11 17.0631 11 16.7798V9.77979C11 9.49645 10.9042 9.25895 10.7125 9.06729C10.5208 8.87562 10.2833 8.77979 10 8.77979C9.71667 8.77979 9.47917 8.87562 9.2875 9.06729C9.09583 9.25895 9 9.49645 9 9.77979V16.7798ZM13 16.7798C13 17.0631 13.0958 17.3006 13.2875 17.4923C13.4792 17.684 13.7167 17.7798 14 17.7798C14.2833 17.7798 14.5208 17.684 14.7125 17.4923C14.9042 17.3006 15 17.0631 15 16.7798V9.77979C15 9.49645 14.9042 9.25895 14.7125 9.06729C14.5208 8.87562 14.2833 8.77979 14 8.77979C13.7167 8.77979 13.4792 8.87562 13.2875 9.06729C13.0958 9.25895 13 9.49645 13 9.77979V16.7798Z" fill="#333333"/>
</svg>
