<svg width="36" height="37" viewBox="0 0 36 37" fill="none" xmlns="http://www.w3.org/2000/svg">
<path fill-rule="evenodd" clip-rule="evenodd" d="M25.522 7.24587H11.4357L11.9001 11.6574C14.6858 10.8659 16.3322 11.7957 17.9517 12.7103C19.7743 13.7397 21.5628 14.7497 24.9029 13.265L25.522 7.24587ZM12.8136 8.44756L12.9991 10.2102C14.77 10.0027 16.3352 10.7391 17.8871 11.4692C19.7458 12.3437 21.5856 13.2092 23.7373 12.4338L24.1473 8.44756H12.8136Z" fill="#333333"/>
<path fill-rule="evenodd" clip-rule="evenodd" d="M26.6286 30.4167L28.5025 12.0744L28.9842 7.34315C29.1713 5.50567 27.6756 3.91318 25.7627 3.91318H11.2373C9.32233 3.91318 7.82597 5.509 8.01635 7.34819L10.4046 30.4207C10.57 32.018 11.9624 33.2344 13.6255 33.2344H23.4073C25.0719 33.2344 26.4652 32.0157 26.6286 30.4167ZM9.25516 7.22872C9.13801 6.09691 10.0588 5.11487 11.2373 5.11487H25.7627C26.9399 5.11487 27.8603 6.09486 27.7452 7.22562L25.3896 30.2987C25.2891 31.2828 24.4317 32.0328 23.4073 32.0328H13.6255C12.6021 32.0328 11.7452 31.2842 11.6434 30.3012L9.25516 7.22872Z" fill="#333333"/>
<path d="M12.9991 10.2102L12.8136 8.44756H24.1473L23.7373 12.4338C21.5856 13.2092 19.7458 12.3437 17.8871 11.4692C16.3352 10.7391 14.77 10.0027 12.9991 10.2102Z" fill="#333333"/>
</svg>
