<svg width="24" height="25" viewBox="0 0 24 25" fill="none" xmlns="http://www.w3.org/2000/svg">
<path d="M4.962 22.6298C4.72867 22.4798 4.58283 22.2673 4.5245 21.9923C4.46617 21.7173 4.512 21.4631 4.662 21.2298L8.612 15.1798C7.562 14.6965 6.67867 13.9923 5.962 13.0673C5.24533 12.1423 4.79533 11.0798 4.612 9.87979C4.562 9.59645 4.64117 9.34229 4.8495 9.11729C5.05783 8.89229 5.32033 8.77979 5.637 8.77979H17.387C17.7037 8.77979 17.9662 8.89229 18.1745 9.11729C18.3828 9.34229 18.462 9.59645 18.412 9.87979C18.2287 11.0798 17.7787 12.1423 17.062 13.0673C16.3453 13.9923 15.462 14.6965 14.412 15.1798L14.987 16.0798C14.637 16.2465 14.3495 16.4131 14.1245 16.5798C13.8995 16.7465 13.6537 16.9798 13.387 17.2798L12.387 15.7298C12.2203 15.7631 11.9287 15.7798 11.512 15.7798H11.062C10.912 15.7798 10.7703 15.7631 10.637 15.7298L8.662 18.7798H13.712C13.9287 18.1798 14.2912 17.6965 14.7995 17.3298C15.3078 16.9631 15.8787 16.7798 16.512 16.7798C17.3453 16.7798 18.0537 17.0715 18.637 17.6548C19.2203 18.2381 19.512 18.9465 19.512 19.7798C19.512 20.6131 19.2203 21.3215 18.637 21.9048C18.0537 22.4881 17.3453 22.7798 16.512 22.7798C15.8787 22.7798 15.3078 22.5965 14.7995 22.2298C14.2912 21.8631 13.9287 21.3798 13.712 20.7798H7.362L6.362 22.3298C6.212 22.5631 5.9995 22.709 5.7245 22.7673C5.4495 22.8256 5.19533 22.7798 4.962 22.6298ZM16.512 20.7798C16.7953 20.7798 17.0328 20.684 17.2245 20.4923C17.4162 20.3006 17.512 20.0631 17.512 19.7798C17.512 19.4965 17.4162 19.259 17.2245 19.0673C17.0328 18.8756 16.7953 18.7798 16.512 18.7798C16.2287 18.7798 15.9912 18.8756 15.7995 19.0673C15.6078 19.259 15.512 19.4965 15.512 19.7798C15.512 20.0631 15.6078 20.3006 15.7995 20.4923C15.9912 20.684 16.2287 20.7798 16.512 20.7798ZM9.462 7.77979C9.312 7.77979 9.19117 7.72979 9.0995 7.62979C9.00783 7.52979 8.962 7.39645 8.962 7.22979C8.962 6.89645 8.90367 6.59229 8.787 6.31729C8.67033 6.04229 8.47033 5.73812 8.187 5.40479C7.90367 5.03812 7.6995 4.68812 7.5745 4.35479C7.4495 4.02145 7.40367 3.63812 7.437 3.20479C7.45367 3.08812 7.50783 2.98812 7.5995 2.90479C7.69117 2.82145 7.80367 2.77979 7.937 2.77979C8.087 2.77979 8.20783 2.82979 8.2995 2.92979C8.39117 3.02979 8.437 3.16312 8.437 3.32979C8.437 3.66312 8.49533 3.96312 8.612 4.22979C8.72867 4.49645 8.92867 4.79645 9.212 5.12979C9.512 5.51312 9.72033 5.87145 9.837 6.20479C9.95367 6.53812 9.99533 6.92145 9.962 7.35479C9.94533 7.47145 9.89117 7.57145 9.7995 7.65479C9.70783 7.73812 9.59533 7.77979 9.462 7.77979ZM11.962 7.77979C11.812 7.77979 11.6912 7.72979 11.5995 7.62979C11.5078 7.52979 11.462 7.39645 11.462 7.22979C11.4787 6.89645 11.4287 6.59229 11.312 6.31729C11.1953 6.04229 10.9953 5.73812 10.712 5.40479C10.412 5.05479 10.1995 4.70895 10.0745 4.36729C9.9495 4.02562 9.90367 3.63812 9.937 3.20479C9.95367 3.08812 10.0078 2.98812 10.0995 2.90479C10.1912 2.82145 10.3037 2.77979 10.437 2.77979C10.587 2.77979 10.7078 2.82979 10.7995 2.92979C10.8912 3.02979 10.937 3.16312 10.937 3.32979C10.937 3.66312 10.9953 3.96312 11.112 4.22979C11.2287 4.49645 11.4287 4.79645 11.712 5.12979C11.9953 5.49645 12.1995 5.85062 12.3245 6.19229C12.4495 6.53395 12.4953 6.92145 12.462 7.35479C12.4453 7.47145 12.3912 7.57145 12.2995 7.65479C12.2078 7.73812 12.0953 7.77979 11.962 7.77979ZM14.462 7.77979C14.312 7.77979 14.1912 7.72979 14.0995 7.62979C14.0078 7.52979 13.962 7.39645 13.962 7.22979C13.9787 6.89645 13.9287 6.59229 13.812 6.31729C13.6953 6.04229 13.4953 5.73812 13.212 5.40479C12.912 5.05479 12.6995 4.70895 12.5745 4.36729C12.4495 4.02562 12.4037 3.63812 12.437 3.20479C12.4537 3.08812 12.5078 2.98812 12.5995 2.90479C12.6912 2.82145 12.8037 2.77979 12.937 2.77979C13.087 2.77979 13.2078 2.82979 13.2995 2.92979C13.3912 3.02979 13.437 3.16312 13.437 3.32979C13.437 3.66312 13.4953 3.96312 13.612 4.22979C13.7287 4.49645 13.9287 4.79645 14.212 5.12979C14.4953 5.49645 14.6995 5.85062 14.8245 6.19229C14.9495 6.53395 14.9953 6.92145 14.962 7.35479C14.9453 7.47145 14.8912 7.57145 14.7995 7.65479C14.7078 7.73812 14.5953 7.77979 14.462 7.77979Z" fill="#4D4D4D"/>
</svg>
