<svg width="36" height="37" viewBox="0 0 36 37" fill="none" xmlns="http://www.w3.org/2000/svg">
<path fill-rule="evenodd" clip-rule="evenodd" d="M9.97706 16.3997L8.82475 12.7071L7.17554 16.2187C3.42224 24.2105 9.51672 33.962 18.4963 33.9811H18.4996C25.4519 33.9811 30.9996 28.3482 30.9996 21.5071C30.9996 16.2445 27.7883 12.9539 23.9977 9.91093L23.8733 12.8407C23.8088 14.3596 21.3746 14.3391 21.3746 12.7811C21.3746 11.4271 22.7496 10.3607 22.7496 8.87735C22.7496 6.20273 20.4301 3.79187 17.4709 3.99281L15.9877 4.09352C16.4995 5.98108 15.7896 6.60815 14.1362 7.66923C12.9749 8.41451 11.0412 9.65541 11.0412 12.0922C11.0412 13.5737 12.4162 14.639 12.4162 15.996C12.4162 17.3511 10.3881 17.717 9.97706 16.3997ZM29.4996 21.5071C29.4996 27.5946 24.5747 32.5295 18.4996 32.5295C10.5651 32.5126 5.23518 23.8586 8.54111 16.8193C9.45286 19.741 13.9162 19.0437 13.9162 15.996C13.9162 14.5586 12.5412 13.5411 12.5412 12.0922C12.5412 10.4484 13.8256 9.6172 15.0977 8.79388C16.3964 7.95333 17.6824 7.12104 17.5759 5.44085C19.5859 5.30437 21.2496 6.96326 21.2496 8.87735C21.2496 10.3973 19.8746 11.2929 19.8746 12.7811C19.8746 15.6348 23.5005 16.2173 24.8646 14.4024C25.1575 14.0126 25.3461 13.5124 25.3721 12.9003C27.8883 14.9202 29.4996 18.0251 29.4996 21.5071Z" fill="#333333"/>
<path d="M18.4834 30.594C20.7015 30.594 22.4996 29.0249 22.4996 26.9328C22.4996 24.1728 19.8221 24.2069 19.8221 19.9489C17.9165 20.7552 16.7853 22.8046 17.6441 24.6806C16.9452 24.9461 16.1268 24.8769 15.4911 24.4908C13.1931 26.8292 15.1794 30.594 18.4834 30.594Z" fill="#333333"/>
</svg>
