<svg width="25" height="25" viewBox="0 0 25 25" fill="none" xmlns="http://www.w3.org/2000/svg">
<mask id="path-1-inside-1_13028_24751" fill="white">
<path fill-rule="evenodd" clip-rule="evenodd" d="M8.87231 3.93116C9.06712 4.00685 9.40261 4.27716 9.64071 4.51504L10.0628 4.95835L10.6905 4.42854C11.0368 4.1366 11.4156 3.8771 11.5455 3.83385C11.9026 3.71491 12.4437 3.9636 12.9524 4.4826L13.4178 4.95835L14.0238 4.42854C14.9978 3.58516 15.3117 3.59597 16.3398 4.52585C17 5.14217 17.2489 5.63954 17.0758 6.06123C17.0216 6.2018 16.6753 6.6343 16.3074 7.02355C14.9329 8.48324 14.6082 9.83482 15.3117 11.2621C15.5931 11.8351 15.9719 12.2893 17.2706 13.576C19.2619 15.5763 19.5 15.9872 19.5 17.4577C19.5 18.3443 19.4675 18.5065 19.1429 19.1552C18.7424 19.977 17.4113 21.4691 16.8918 21.6854C16.4264 21.88 16.1342 21.7719 15.4091 21.1556L14.7814 20.6149L14.2186 21.1556C13.9048 21.4583 13.5368 21.7286 13.3745 21.7611C13.0498 21.8476 12.6169 21.6313 11.9243 21.0366L11.4264 20.6149L11.0585 21.0474C10.8528 21.2853 10.5173 21.5664 10.3009 21.6637C9.75976 21.9233 9.38097 21.7719 8.54764 20.9609C7.91993 20.3554 7.86582 20.2797 7.86582 19.8364C7.86582 19.4039 7.93076 19.3066 8.67751 18.4849C9.72729 17.3387 10.1818 16.4413 10.1169 15.652C10.0303 14.5707 9.51084 13.8679 7.4221 11.9433C6.96755 11.5216 6.43725 10.9377 6.25327 10.6458C5.38747 9.28337 5.2576 7.63987 5.91777 6.30992C6.44807 5.22867 7.86582 3.81222 8.43941 3.77979C8.4827 3.77979 8.67751 3.84466 8.87231 3.93116ZM10.0785 7.96338C9.59582 8.92034 9.66478 10.0634 10.2337 11.0469C10.6129 11.6583 11.2163 12.2032 13.2333 13.745C15.8364 15.7254 16.7155 16.6823 17.0086 17.7855C17.0948 18.0513 17.2327 18.2905 17.3189 18.3038C17.4223 18.3171 17.6292 17.9981 17.8188 17.5994C18.0774 16.9747 18.1119 16.7621 17.9395 16.1507C17.6637 15.1007 16.9052 14.3032 14.6124 12.6551C11.8886 10.6881 11.2852 9.94375 10.5612 7.76402L10.4061 7.31212L10.0785 7.96338ZM7.40832 10.8749C6.95599 9.99934 6.85386 8.63288 7.20404 7.81036C7.49587 7.12049 7.64178 7.14703 7.75851 7.88996C7.80228 8.19509 8.06492 8.87168 8.35674 9.41561C8.88202 10.4371 9.14466 10.7025 11.9024 13.1037C13.3907 14.3906 13.916 15.2795 13.9014 16.4469C13.9014 16.9908 13.7992 17.4154 13.595 17.7736L13.2885 18.3042L13.1718 17.7736C12.8946 16.3938 12.2672 15.5846 9.75749 13.3293C8.35674 12.0822 7.65637 11.3393 7.40832 10.8749Z"/>
</mask>
<path fill-rule="evenodd" clip-rule="evenodd" d="M8.87231 3.93116C9.06712 4.00685 9.40261 4.27716 9.64071 4.51504L10.0628 4.95835L10.6905 4.42854C11.0368 4.1366 11.4156 3.8771 11.5455 3.83385C11.9026 3.71491 12.4437 3.9636 12.9524 4.4826L13.4178 4.95835L14.0238 4.42854C14.9978 3.58516 15.3117 3.59597 16.3398 4.52585C17 5.14217 17.2489 5.63954 17.0758 6.06123C17.0216 6.2018 16.6753 6.6343 16.3074 7.02355C14.9329 8.48324 14.6082 9.83482 15.3117 11.2621C15.5931 11.8351 15.9719 12.2893 17.2706 13.576C19.2619 15.5763 19.5 15.9872 19.5 17.4577C19.5 18.3443 19.4675 18.5065 19.1429 19.1552C18.7424 19.977 17.4113 21.4691 16.8918 21.6854C16.4264 21.88 16.1342 21.7719 15.4091 21.1556L14.7814 20.6149L14.2186 21.1556C13.9048 21.4583 13.5368 21.7286 13.3745 21.7611C13.0498 21.8476 12.6169 21.6313 11.9243 21.0366L11.4264 20.6149L11.0585 21.0474C10.8528 21.2853 10.5173 21.5664 10.3009 21.6637C9.75976 21.9233 9.38097 21.7719 8.54764 20.9609C7.91993 20.3554 7.86582 20.2797 7.86582 19.8364C7.86582 19.4039 7.93076 19.3066 8.67751 18.4849C9.72729 17.3387 10.1818 16.4413 10.1169 15.652C10.0303 14.5707 9.51084 13.8679 7.4221 11.9433C6.96755 11.5216 6.43725 10.9377 6.25327 10.6458C5.38747 9.28337 5.2576 7.63987 5.91777 6.30992C6.44807 5.22867 7.86582 3.81222 8.43941 3.77979C8.4827 3.77979 8.67751 3.84466 8.87231 3.93116ZM10.0785 7.96338C9.59582 8.92034 9.66478 10.0634 10.2337 11.0469C10.6129 11.6583 11.2163 12.2032 13.2333 13.745C15.8364 15.7254 16.7155 16.6823 17.0086 17.7855C17.0948 18.0513 17.2327 18.2905 17.3189 18.3038C17.4223 18.3171 17.6292 17.9981 17.8188 17.5994C18.0774 16.9747 18.1119 16.7621 17.9395 16.1507C17.6637 15.1007 16.9052 14.3032 14.6124 12.6551C11.8886 10.6881 11.2852 9.94375 10.5612 7.76402L10.4061 7.31212L10.0785 7.96338ZM7.40832 10.8749C6.95599 9.99934 6.85386 8.63288 7.20404 7.81036C7.49587 7.12049 7.64178 7.14703 7.75851 7.88996C7.80228 8.19509 8.06492 8.87168 8.35674 9.41561C8.88202 10.4371 9.14466 10.7025 11.9024 13.1037C13.3907 14.3906 13.916 15.2795 13.9014 16.4469C13.9014 16.9908 13.7992 17.4154 13.595 17.7736L13.2885 18.3042L13.1718 17.7736C12.8946 16.3938 12.2672 15.5846 9.75749 13.3293C8.35674 12.0822 7.65637 11.3393 7.40832 10.8749Z" fill="#333333" stroke="#333333" stroke-width="6" mask="url(#path-1-inside-1_13028_24751)"/>
</svg>
