<svg width="37" height="36" viewBox="0 0 37 36" fill="none" xmlns="http://www.w3.org/2000/svg">
<path fill-rule="evenodd" clip-rule="evenodd" d="M31.8475 5.03594C30.0452 3.27437 27.1419 3.24503 25.3029 4.94791C14.1858 1.54384 1.02259 14.4075 4.50669 25.2736C2.76446 27.0711 2.7945 29.9085 4.59683 31.6701C6.39918 33.4317 9.3024 33.461 11.1414 31.7581C22.2586 35.1622 35.4217 22.2986 31.9376 11.4324C33.6799 9.63497 33.6498 6.79749 31.8475 5.03594ZM30.4053 11.0383C32.1439 9.90394 32.42 7.39838 30.9252 5.93739C29.4304 4.47641 26.8668 4.74623 25.7062 6.44554C15.2791 2.22505 1.71901 15.4759 6.03906 25.6677C4.30041 26.8021 4.02434 29.3077 5.51914 30.7686C7.01395 32.2296 9.57751 31.9598 10.7381 30.2605C21.1652 34.481 34.7253 21.2301 30.4053 11.0383Z" fill="#333333"/>
<path fill-rule="evenodd" clip-rule="evenodd" d="M27.351 15.0629C27.4725 20.7915 20.7224 27.3901 14.8607 27.2754C12.876 27.3119 10.8533 26.5104 9.8503 24.764C9.29201 23.7917 9.06886 22.7191 9.09287 21.6187C8.99106 15.8964 15.7285 9.31775 21.5812 9.43058C23.5664 9.39377 25.5898 10.1952 26.5931 11.942C27.1472 12.9072 27.3712 13.971 27.351 15.0629ZM14.0106 14.2369C12.4788 15.734 11.3078 17.5206 10.7482 19.2856C9.35226 23.6881 12.6268 27.0637 17.268 25.6577C19.0739 25.1107 20.9019 23.9661 22.4337 22.469C23.9655 20.9719 25.1365 19.1853 25.6961 17.4204C26.2532 15.6636 26.1866 14.006 25.39 12.6185C24.1929 10.5345 21.2601 10.4171 19.1762 11.0483C17.3704 11.5953 15.5424 12.7399 14.0106 14.2369Z" fill="#333333"/>
<path fill-rule="evenodd" clip-rule="evenodd" d="M18.0838 18.4883C16.7466 17.1814 16.7466 15.0627 18.0838 13.7558C19.4209 12.4489 21.5886 12.4489 22.9258 13.7558C24.263 15.0627 24.263 17.1814 22.9258 18.4883C21.5886 19.7952 19.4209 19.7952 18.0838 18.4883ZM22.2826 17.9151C23.1904 17.0279 23.276 15.6416 22.5399 14.6602C22.8294 15.6192 22.5864 16.699 21.8121 17.4558C21.0379 18.212 19.9335 18.4491 18.9524 18.1666C19.9565 18.886 21.3749 18.8024 22.2826 17.9151Z" fill="#333333"/>
</svg>
