<svg width="24" height="25" viewBox="0 0 24 25" fill="none" xmlns="http://www.w3.org/2000/svg">
<path d="M4 22.7798C3.71667 22.7798 3.47917 22.684 3.2875 22.4923C3.09583 22.3006 3 22.0631 3 21.7798C3 21.4965 3.09583 21.259 3.2875 21.0673C3.47917 20.8756 3.71667 20.7798 4 20.7798H5V17.5798C4.41667 17.3798 3.9375 17.0256 3.5625 16.5173C3.1875 16.009 3 15.4298 3 14.7798V7.77979C3 7.49645 3.09583 7.25895 3.2875 7.06729C3.47917 6.87562 3.71667 6.77979 4 6.77979H8C8.28333 6.77979 8.52083 6.87562 8.7125 7.06729C8.90417 7.25895 9 7.49645 9 7.77979V14.7798C9 15.4298 8.8125 16.009 8.4375 16.5173C8.0625 17.0256 7.58333 17.3798 7 17.5798V20.7798H8C8.28333 20.7798 8.52083 20.8756 8.7125 21.0673C8.90417 21.259 9 21.4965 9 21.7798C9 22.0631 8.90417 22.3006 8.7125 22.4923C8.52083 22.684 8.28333 22.7798 8 22.7798H4ZM5 11.7798H7V8.77979H5V11.7798ZM13 22.7798C12.45 22.7798 11.9792 22.584 11.5875 22.1923C11.1958 21.8006 11 21.3298 11 20.7798V11.2298C11 10.7965 11.125 10.409 11.375 10.0673C11.625 9.72562 11.95 9.47979 12.35 9.32979L13.3 8.97979C13.5333 8.89645 13.7083 8.77562 13.825 8.61729C13.9417 8.45895 14 8.26312 14 8.02979V3.77979C14 3.49645 14.0958 3.25895 14.2875 3.06729C14.4792 2.87562 14.7167 2.77979 15 2.77979H18C18.2833 2.77979 18.5208 2.87562 18.7125 3.06729C18.9042 3.25895 19 3.49645 19 3.77979V8.02979C19 8.26312 19.0583 8.45895 19.175 8.61729C19.2917 8.77562 19.4667 8.89645 19.7 8.97979L20.65 9.32979C21.05 9.47979 21.375 9.72562 21.625 10.0673C21.875 10.409 22 10.7965 22 11.2298V20.7798C22 21.3298 21.8042 21.8006 21.4125 22.1923C21.0208 22.584 20.55 22.7798 20 22.7798H13ZM16 5.77979H17V4.77979H16V5.77979ZM13 12.7798H20V11.2298L19.05 10.8798C18.4167 10.6465 17.9167 10.2798 17.55 9.77979C17.1833 9.27979 17 8.71312 17 8.07979V7.77979H16V8.07979C16 8.71312 15.8167 9.27979 15.45 9.77979C15.0833 10.2798 14.5833 10.6465 13.95 10.8798L13 11.2298V12.7798ZM13 20.7798H20V18.7798H13V20.7798Z" fill="#4D4D4D"/>
</svg>
