<svg width="24" height="25" viewBox="0 0 24 25" fill="none" xmlns="http://www.w3.org/2000/svg">
<path d="M5 21.7798C4.45 21.7798 3.97917 21.584 3.5875 21.1923C3.19583 20.8006 3 20.3298 3 19.7798V5.77979C3 5.22979 3.19583 4.75895 3.5875 4.36729C3.97917 3.97562 4.45 3.77979 5 3.77979H19C19.55 3.77979 20.0208 3.97562 20.4125 4.36729C20.8042 4.75895 21 5.22979 21 5.77979V19.7798C21 20.3298 20.8042 20.8006 20.4125 21.1923C20.0208 21.584 19.55 21.7798 19 21.7798H5ZM5 19.7798H19V5.77979H5V19.7798ZM7 17.7798H17C17.2 17.7798 17.35 17.6881 17.45 17.5048C17.55 17.3215 17.5333 17.1465 17.4 16.9798L14.65 13.3048C14.55 13.1715 14.4167 13.1048 14.25 13.1048C14.0833 13.1048 13.95 13.1715 13.85 13.3048L11.25 16.7798L9.4 14.3048C9.3 14.1715 9.16667 14.1048 9 14.1048C8.83333 14.1048 8.7 14.1715 8.6 14.3048L6.6 16.9798C6.46667 17.1465 6.45 17.3215 6.55 17.5048C6.65 17.6881 6.8 17.7798 7 17.7798ZM8.5 10.7798C8.91667 10.7798 9.27083 10.634 9.5625 10.3423C9.85417 10.0506 10 9.69645 10 9.27979C10 8.86312 9.85417 8.50895 9.5625 8.21729C9.27083 7.92562 8.91667 7.77979 8.5 7.77979C8.08333 7.77979 7.72917 7.92562 7.4375 8.21729C7.14583 8.50895 7 8.86312 7 9.27979C7 9.69645 7.14583 10.0506 7.4375 10.3423C7.72917 10.634 8.08333 10.7798 8.5 10.7798Z" fill="#333333"/>
</svg>
