<svg width="36" height="36" viewBox="0 0 36 36" fill="none" xmlns="http://www.w3.org/2000/svg">
<path fill-rule="evenodd" clip-rule="evenodd" d="M19.3499 5.83239L22.4031 12.143C22.6269 12.6058 23.0448 12.9004 23.567 12.9641L30.691 13.8339C31.2781 13.9056 31.7406 14.2767 31.9234 14.8234C32.1064 15.3698 31.9569 15.9341 31.5252 16.3274L26.2881 21.0973C25.9041 21.447 25.7446 21.9238 25.8436 22.4261L27.1934 29.2741C27.3046 29.8385 27.0839 30.3804 26.6052 30.7181C26.1263 31.056 25.5276 31.0924 25.0092 30.8152L18.7193 27.4525C18.2583 27.206 17.7417 27.206 17.2807 27.4525L10.9908 30.8152C10.4724 31.0924 9.87348 31.056 9.39481 30.7181C8.91596 30.3804 8.69535 29.8385 8.80663 29.2741L10.1564 22.4261C10.2554 21.924 10.0959 21.447 9.71186 21.0973L4.47475 16.3274C4.04307 15.9343 3.89364 15.37 4.07663 14.8234C4.25944 14.2769 4.72204 13.9056 5.30916 13.8339L12.4332 12.9641C12.9555 12.9004 13.3732 12.6056 13.597 12.143L16.6503 5.83239C16.902 5.31234 17.4084 5 18.0003 5C18.592 5 19.0982 5.31234 19.3499 5.83239Z" fill="white"/>
</svg>
