<svg width="36" height="37" viewBox="0 0 36 37" fill="none" xmlns="http://www.w3.org/2000/svg">
<path fill-rule="evenodd" clip-rule="evenodd" d="M24.5096 9.12251C24.1944 9.3353 23.8295 9.61131 23.4454 9.9346C22.0859 7.19099 17.9409 7.15961 16.571 9.91532C15.2483 9.58057 13.7978 10.1786 13.16 11.3755C12.2589 10.8871 11.2302 10.4709 10.1908 10.445C9.00217 10.4149 8.39134 11.6407 7.96281 12.5345L7.24273 12.6699C6.38829 12.8305 5.38165 13.1033 4.56372 13.6393C3.69006 14.2119 3 15.1167 3 16.4062C3 21.5743 6.46957 25.685 10.9038 27.7117C11.1829 28.6771 12.0552 29.325 13.0913 29.325H22.908C23.9462 29.325 24.819 28.6747 25.0968 27.707C29.6981 25.5792 32.9549 21.4405 32.9992 16.5365C33.0491 14.0271 30.5643 13.0018 28.424 12.6088C28.206 11.7329 27.9237 10.8677 27.5552 10.041C26.892 8.55335 25.8181 8.239 24.5096 9.12251ZM19.1265 14.672V14.8605C19.529 14.6619 20.1131 15.0024 20.3539 15.3005C20.8406 15.9032 20.8663 16.9501 20.196 17.6879H21.3419C21.8385 16.7078 21.7239 15.5391 21.1128 14.7474C21.3864 14.0819 21.8151 13.4212 22.3074 12.8085C23.6287 11.2596 24.4136 10.5446 25.9638 9.73355C27.5535 10.1258 27.9305 15.7759 27.3389 17.2355C27.3944 17.2255 27.4778 17.2143 27.5808 17.2011L27.6719 17.1895C28.3946 17.0978 29.8218 16.9168 29.8218 16.4439C29.8218 16.1304 29.3711 15.996 28.6758 15.8784C28.6758 15.2752 28.5995 14.559 28.5231 13.8427C30.1655 14.1443 31.808 14.7851 31.7698 16.5193C31.7316 21.0808 28.5613 25.0014 23.9776 26.8863C23.9776 27.5649 23.672 28.1304 22.908 28.1304H13.0913C12.3274 28.1304 12.0218 27.5649 12.0218 26.8863C7.62908 25.1145 4.22951 21.2316 4.22951 16.4062C4.22951 14.7212 6.06393 14.1085 7.47629 13.8427C7.3617 14.559 7.3235 15.2752 7.3235 15.8407C6.49402 16.0378 6.26294 16.1628 6.17758 16.4062C6.17758 16.8967 7.6013 17.0888 8.32641 17.1866C8.47126 17.2061 8.58823 17.2219 8.66041 17.2355C8.44041 16.1499 8.37007 15.1401 8.68607 14.0586C9.09286 12.6665 9.88599 11.6912 10.0737 11.6449C12.1723 11.9022 13.8851 12.9487 14.8484 14.7851C14.2372 15.5391 14.1608 16.7078 14.6192 17.6879H15.7269C15.164 17.0434 15.1187 16.1632 15.4425 15.549C15.7577 14.9511 16.2278 14.8605 16.8347 14.8605V14.8553C16.8346 14.7937 16.8346 14.7327 16.8368 14.672C16.8858 13.3114 19.1265 13.2305 19.1265 14.672ZM15.5741 14.1443C15.7269 14.0689 15.8797 13.9935 16.0707 13.9558C16.2997 13.4093 16.7461 12.8547 17.5986 12.674C17.4571 10.9282 14.9329 10.3777 14.199 12.0332C14.3383 12.2393 14.4842 12.4395 14.6298 12.6391C14.9793 13.1185 15.3267 13.5949 15.5741 14.1443ZM17.5604 10.7137C18.1334 11.2038 18.4771 11.8824 18.5153 12.674C19.2278 12.9027 19.5472 13.1682 19.9379 13.9581C20.0876 13.9965 20.2365 14.0704 20.3488 14.1443C21.0308 12.8189 21.5345 12.1736 22.5643 11.1284C22 8.31139 18.4148 8.2776 17.5604 10.7137Z" fill="#333333"/>
</svg>
