<svg width="37" height="36" viewBox="0 0 37 36" fill="none" xmlns="http://www.w3.org/2000/svg">
<path fill-rule="evenodd" clip-rule="evenodd" d="M20.9701 24.9141C22.5992 24.5959 23.8669 24.0184 24.8425 23.2396C29.2299 23.2058 33.7603 19.7356 33.7778 15.4529C33.7919 11.9613 28.8889 10.2461 26.6517 12.9818C25.2036 13.9134 24.1294 14.4439 19.7778 14.4439C17.1385 14.4439 15.3351 13.0821 13.6322 11.7962C12.1091 10.6461 10.6664 9.55664 8.77783 9.55664C5.77783 9.55664 3.77783 12.4888 3.77783 14.4438C6.83895 14.3833 7.77606 16.488 8.82802 18.8506C9.89589 21.2489 11.0821 23.9131 14.7288 24.8481C13.6239 25.3424 12.7394 26.0971 12.2165 27.0033C11.9041 27.5448 12.3769 28.1268 13.0129 28.1268H22.5429C23.1789 28.1268 23.6518 27.5448 23.3393 27.0033C22.8392 26.1366 22.0082 25.4084 20.9701 24.9141ZM17.7779 24.8481C19.1091 24.8481 20.7778 25.6833 20.7778 26.6607H14.7778C14.7778 25.8245 16.4466 24.8481 17.7779 24.8481ZM10.6079 19.1599C11.2167 20.4652 11.8577 21.5601 12.8643 22.3559C15.8467 24.7135 22.1714 24.2875 24.623 21.3967C25.9527 19.8287 26.6223 16.9209 26.1173 14.9763C24.1664 15.8814 21.8934 15.9099 19.7778 15.9099C16.7265 15.9099 14.6186 14.3881 12.9882 13.1623C11.0547 11.7083 8.33944 9.93392 6.28172 12.2325C6.00356 12.5432 5.7862 12.874 5.62596 13.1943C8.20097 13.8977 9.30843 16.3208 10.3211 18.5366C10.4172 18.7468 10.5124 18.9551 10.6079 19.1599ZM27.6849 14.0834C28.9754 12.1595 32.287 13.1593 32.2778 15.4471C32.265 18.5726 29.2472 20.9783 26.3317 21.6045C27.6166 19.2792 28.0521 16.705 27.6849 14.0834Z" fill="#333333"/>
</svg>
