<svg width="24" height="25" viewBox="0 0 24 25" fill="none" xmlns="http://www.w3.org/2000/svg">
<path d="M5 21.7798C4.45 21.7798 3.97917 21.584 3.5875 21.1923C3.19583 20.8006 3 20.3298 3 19.7798V5.77979C3 5.22979 3.19583 4.75895 3.5875 4.36729C3.97917 3.97562 4.45 3.77979 5 3.77979H16.175C16.4417 3.77979 16.6958 3.82979 16.9375 3.92979C17.1792 4.02979 17.3917 4.17145 17.575 4.35479L20.425 7.20479C20.6083 7.38812 20.75 7.60062 20.85 7.84229C20.95 8.08395 21 8.33812 21 8.60479V19.7798C21 20.3298 20.8042 20.8006 20.4125 21.1923C20.0208 21.584 19.55 21.7798 19 21.7798H5ZM12 18.7798C12.8333 18.7798 13.5417 18.4881 14.125 17.9048C14.7083 17.3215 15 16.6131 15 15.7798C15 14.9465 14.7083 14.2381 14.125 13.6548C13.5417 13.0715 12.8333 12.7798 12 12.7798C11.1667 12.7798 10.4583 13.0715 9.875 13.6548C9.29167 14.2381 9 14.9465 9 15.7798C9 16.6131 9.29167 17.3215 9.875 17.9048C10.4583 18.4881 11.1667 18.7798 12 18.7798ZM7 10.7798H14C14.2833 10.7798 14.5208 10.684 14.7125 10.4923C14.9042 10.3006 15 10.0631 15 9.77979V7.77979C15 7.49645 14.9042 7.25895 14.7125 7.06729C14.5208 6.87562 14.2833 6.77979 14 6.77979H7C6.71667 6.77979 6.47917 6.87562 6.2875 7.06729C6.09583 7.25895 6 7.49645 6 7.77979V9.77979C6 10.0631 6.09583 10.3006 6.2875 10.4923C6.47917 10.684 6.71667 10.7798 7 10.7798Z" fill="#333333"/>
</svg>
