<svg width="25" height="25" viewBox="0 0 25 25" fill="none" xmlns="http://www.w3.org/2000/svg">
<path d="M15.9999 14.7789H15.2099L14.9299 14.5089C16.1299 13.1089 16.7499 11.1989 16.4099 9.16895C15.9399 6.38895 13.6199 4.16895 10.8199 3.82895C6.58989 3.30895 3.02989 6.86895 3.54989 11.0989C3.88989 13.8989 6.10989 16.2189 8.88989 16.6889C10.9199 17.0289 12.8299 16.4089 14.2299 15.2089L14.4999 15.4889V16.2789L18.7499 20.5289C19.1599 20.9389 19.8299 20.9389 20.2399 20.5289C20.6499 20.1189 20.6499 19.4489 20.2399 19.0389L15.9999 14.7789ZM9.99989 14.7789C7.50989 14.7789 5.49989 12.7689 5.49989 10.2789C5.49989 7.78895 7.50989 5.77895 9.99989 5.77895C12.4899 5.77895 14.4999 7.78895 14.4999 10.2789C14.4999 12.7689 12.4899 14.7789 9.99989 14.7789Z" fill="white"/>
</svg>
