<svg width="24" height="25" viewBox="0 0 24 25" fill="none" xmlns="http://www.w3.org/2000/svg">
<path d="M8 22.7798C7.45 22.7798 6.97917 22.584 6.5875 22.1923C6.19583 21.8006 6 21.3298 6 20.7798C6 20.2298 6.19583 19.759 6.5875 19.3673C6.97917 18.9756 7.45 18.7798 8 18.7798C8.55 18.7798 9.02083 18.9756 9.4125 19.3673C9.80417 19.759 10 20.2298 10 20.7798C10 21.3298 9.80417 21.8006 9.4125 22.1923C9.02083 22.584 8.55 22.7798 8 22.7798ZM18 22.7798C17.45 22.7798 16.9792 22.584 16.5875 22.1923C16.1958 21.8006 16 21.3298 16 20.7798C16 20.2298 16.1958 19.759 16.5875 19.3673C16.9792 18.9756 17.45 18.7798 18 18.7798C18.55 18.7798 19.0208 18.9756 19.4125 19.3673C19.8042 19.759 20 20.2298 20 20.7798C20 21.3298 19.8042 21.8006 19.4125 22.1923C19.0208 22.584 18.55 22.7798 18 22.7798ZM6.2 4.77979H20.95C21.3333 4.77979 21.625 4.95062 21.825 5.29229C22.025 5.63395 22.0333 5.97979 21.85 6.32979L18.3 12.7298C18.1167 13.0631 17.8708 13.3215 17.5625 13.5048C17.2542 13.6881 16.9167 13.7798 16.55 13.7798H9.1L8 15.7798H19C19.2833 15.7798 19.5208 15.8756 19.7125 16.0673C19.9042 16.259 20 16.4965 20 16.7798C20 17.0631 19.9042 17.3006 19.7125 17.4923C19.5208 17.684 19.2833 17.7798 19 17.7798H8C7.25 17.7798 6.68333 17.4506 6.3 16.7923C5.91667 16.134 5.9 15.4798 6.25 14.8298L7.6 12.3798L4 4.77979H3C2.71667 4.77979 2.47917 4.68395 2.2875 4.49229C2.09583 4.30062 2 4.06312 2 3.77979C2 3.49645 2.09583 3.25895 2.2875 3.06729C2.47917 2.87562 2.71667 2.77979 3 2.77979H4.625C4.80833 2.77979 4.98333 2.82979 5.15 2.92979C5.31667 3.02979 5.44167 3.17145 5.525 3.35479L6.2 4.77979Z" fill="#558950"/>
</svg>
