<svg width="36" height="37" viewBox="0 0 36 37" fill="none" xmlns="http://www.w3.org/2000/svg">
<path d="M22.7529 5.34578C22.3909 4.44402 21.118 5.07332 21.4601 5.92652C21.8146 7.30793 21.2455 8.38502 19.9041 8.94932C17.9801 9.75665 16.732 11.7941 17.6706 13.8031C18.0717 14.6629 19.3165 13.9861 18.9295 13.1462C18.5386 11.8307 19.1556 10.8664 20.4189 10.3364C22.4146 9.49945 23.565 7.41719 22.7529 5.34578Z" fill="#333333"/>
<path d="M14.5772 13.1477C14.0053 11.8872 14.909 10.8153 16.0536 10.3302C18.0164 9.49525 19.2404 7.39221 18.3633 5.33786C17.9924 4.445 16.7099 5.07756 17.0654 5.92847C17.593 7.25725 16.7499 8.43226 15.5226 8.95341C13.6254 9.76089 12.3148 11.8143 13.3116 13.8088C13.7154 14.661 14.9742 13.9859 14.5772 13.1477Z" fill="#333333"/>
<path d="M18 20.4397C11.4421 20.4397 6.125 19.8842 6.125 19.1956C6.125 18.5085 11.4414 17.9518 18 17.9518C24.5586 17.9518 29.875 18.5085 29.875 19.1956C29.875 19.8826 24.5586 20.4397 18 20.4397Z" fill="#333333"/>
<path fill-rule="evenodd" clip-rule="evenodd" d="M32.9985 19.4378C33.0246 18.4976 32.7046 17.7075 32.1495 17.098C30.8123 15.6295 28.5614 15.448 26.6954 15.2417C20.9819 14.6139 15.0184 14.6132 9.30501 15.2416C7.46371 15.4441 5.26652 15.6235 3.91311 17.0277C3.34996 17.612 3 18.3819 3 19.3156C3 24.5203 6.51123 28.6133 10.903 30.6433C11.1938 31.5979 12.0553 32.257 13.0897 32.257H22.9114C23.9455 32.257 24.8065 31.598 25.0973 30.6438C29.6804 28.5306 32.9519 24.3692 32.9985 19.4378ZM13.0897 31.0053C12.333 31.0053 12.0279 30.4269 12.0279 29.7682C7.66495 27.9876 4.25 24.1292 4.25 19.3156C4.25 16.9362 7.67328 16.6803 9.4415 16.4859C15.1855 15.8541 20.9877 15.8856 26.7307 16.5047C28.5821 16.7043 31.8247 17.0177 31.7487 19.4137C31.7112 23.9659 28.5444 27.9029 23.9726 29.7682C23.9726 30.4266 23.6678 31.0053 22.9114 31.0053H13.0897Z" fill="#333333"/>
</svg>
