<svg width="36" height="37" viewBox="0 0 36 37" fill="none" xmlns="http://www.w3.org/2000/svg">
<path fill-rule="evenodd" clip-rule="evenodd" d="M6.94737 23.3153C6.94737 24.0669 7.33102 24.7506 7.92982 25.1569V26.9856H6.03861C5.01801 26.9856 4 27.75 4 28.9129C4 30.0758 5.01801 30.8401 6.03861 30.8401H6.72824C7.84428 32.3314 9.70705 33.2344 11.7075 33.2344H24.295C26.2953 33.2344 28.1581 32.3314 29.2742 30.8401H29.9614C30.982 30.8401 32 30.0757 32 28.9129C32 27.75 30.982 26.9856 29.9614 26.9856H28.0702V17.0755C28.6726 16.6092 29.0526 15.8818 29.0526 15.085C29.0526 13.724 27.9437 12.5654 26.512 12.5654H23.7791C25.5888 11.2477 26.1072 9.29334 26.1041 7.4062C26.1024 6.46322 25.2912 5.83474 24.4678 5.83589C22.6588 5.83837 20.7104 6.17859 19.1712 7.71962C17.5401 4.91153 14.7091 3.91458 11.5326 3.91318C10.6195 3.91275 9.89572 4.64026 9.89538 5.51735C9.89433 7.94701 10.2386 10.7666 12.8269 12.5654H9.53246C8.0761 12.5654 6.94737 13.7442 6.94737 15.1298V23.3153ZM11.5 22.972V18.0851C11.5 17.5964 11.9453 17.6367 12 17.6367H14.8664C15.0243 17.6367 15.1537 17.7612 15.1551 17.9142L15.1551 17.9198L15.1724 18.9921C15.2083 22.6585 20.9562 22.4667 20.9562 18.9652V17.9542C20.9562 17.7791 21.103 17.6367 21.2834 17.6367H26.469C26.6932 17.6367 26.8421 17.8415 26.8421 18.0851V26.9856H9.15789V25.3002C10.6127 25.3002 11.5 24.4264 11.5 22.972ZM8.17544 23.3153V15.1298C8.17544 14.3783 8.78417 13.767 9.53246 13.767H26.512C27.2358 13.767 27.8246 14.3583 27.8246 15.085C27.8246 15.8118 27.2358 16.403 26.512 16.403H21.3001C20.2325 16.403 19.3639 17.2773 19.3639 18.3519V19.399C19.3639 20.9874 16.7797 21.1031 16.7652 19.4101L16.7652 19.4043L16.7478 18.2927C16.7367 17.2504 15.8865 16.4031 14.8505 16.4031H12.0474C11.0402 16.4031 10.2209 17.2279 10.2209 18.2418V23.3153C10.2209 24.6458 8.17544 24.5762 8.17544 23.3153ZM7.40172 29.6384H6.03861C5.59098 29.6384 5.22807 29.3135 5.22807 28.9129C5.22807 28.5122 5.59098 28.1873 6.03861 28.1873H29.9614C30.409 28.1873 30.7719 28.5122 30.7719 28.9129C30.7719 29.3135 30.409 29.6384 29.9614 29.6384H28.6007C27.8051 31.0842 26.1474 32.0328 24.295 32.0328H11.7075C9.85495 32.0328 8.19729 31.0842 7.40172 29.6384ZM22.2752 12.5654C23.9533 11.5599 24.879 9.21798 24.876 7.40812C24.8757 7.20314 24.6938 7.03724 24.4697 7.03757C22.7676 7.03989 21.1834 7.36681 19.9649 8.64623C21.5143 9.29124 21.5 11.2435 20.3939 12.5654H22.2752ZM11.1234 5.51764C11.1235 5.29509 11.3064 5.11476 11.532 5.11487C14.1669 5.11604 16.5572 5.67553 17.9853 8.11006C15.683 8.34925 14.8664 10.8558 16.5 12.5654H14.5C12.0703 11.1466 11.1223 8.02825 11.1234 5.51764ZM16.755 10.5506C16.755 11.4249 17.4797 12.1363 18.3722 12.1405C19.2605 12.1405 20.005 11.4214 20.005 10.5506C20.005 9.67372 19.2761 8.96029 18.3801 8.96029C17.4943 8.96029 16.755 9.68968 16.755 10.5506Z" fill="#333333"/>
</svg>
