<svg width="31" height="24" viewBox="0 0 31 24" fill="none" xmlns="http://www.w3.org/2000/svg">
<path fill-rule="evenodd" clip-rule="evenodd" d="M15.9942 20.594C16.5825 20.0406 17.0874 19.3072 17.4237 18.4872C20.9643 19.892 25.6501 19.4805 28.4942 16.8051C30.2311 15.1711 31.2422 11.9675 29.3264 9.60002C28.2293 8.24429 26.2717 8.02766 25.2278 6.69272C24.8451 6.20333 24.9094 5.48278 25.1383 4.94024C25.3917 4.33995 25.6834 3.05934 24.6974 2.15393C22.9613 0.559814 20.2652 0.559815 18.5291 2.15393C17.2467 3.33147 18.2694 4.50887 18.2694 5.84667L18.2693 5.85231C18.2596 8.22257 13.9946 8.66239 13.1584 10.8882C12.452 10.3575 12.3044 9.5206 12.6383 8.72924C12.8917 8.12894 13.1834 6.84833 12.1974 5.94293C10.4613 4.34881 7.76523 4.34881 6.02911 5.94293C5.04305 6.84833 5.33482 8.12894 5.58814 8.72924C5.81816 9.27431 5.88208 9.99145 5.4987 10.4817C4.45531 11.816 2.49669 12.0339 1.40008 13.389C-0.51556 15.7563 0.495442 18.9602 2.23231 20.5941C4.13492 22.3839 6.78747 23.0417 9.11324 23.0417C11.4429 23.0417 14.0865 22.3887 15.9942 20.594ZM11.497 8.23118C11.6909 7.77174 11.7338 7.219 11.365 6.88033C10.095 5.71419 8.1315 5.71418 6.86148 6.88033C6.49264 7.219 6.53563 7.77174 6.72951 8.23118C7.71927 10.5766 6.08105 11.5853 4.43223 12.6004C3.65066 13.0816 2.8667 13.5643 2.35914 14.1915C1.00342 15.8669 1.63891 18.3153 3.07573 19.667C4.67328 21.1698 6.9793 21.7787 9.11324 21.7787C11.2514 21.7787 13.5483 21.1744 15.1508 19.667C16.5676 18.334 17.1472 15.7732 15.8673 14.1915C15.3535 13.5565 14.5677 13.0648 13.7867 12.5761C12.1451 11.5487 10.5248 10.5348 11.497 8.23118ZM23.865 3.09133C24.2338 3.43 24.1909 3.98275 23.997 4.44218C23.0039 6.79537 24.6366 7.79659 26.2854 8.80778C27.0691 9.28837 27.8565 9.77122 28.3673 10.4025C29.7232 12.0781 29.0877 14.5262 27.6508 15.878C25.1316 18.2478 20.8915 18.5521 17.7792 17.2716C18.278 14.4694 16.5004 12.7512 14.2555 11.5497C14.6298 10.2849 15.7758 9.63785 16.9025 9.00169C17.4866 8.67188 18.0656 8.34501 18.5291 7.9365C19.1087 7.42572 19.508 6.78732 19.5114 5.85602C19.5119 5.57949 19.4072 5.25077 19.2987 4.91017C19.0889 4.25103 18.8648 3.54738 19.3615 3.09133C20.6315 1.92519 22.595 1.92519 23.865 3.09133Z" fill="#333333"/>
<path d="M9.11328 11.6828C8.43808 13.5956 8.43808 16.7267 9.11328 18.6212C9.78848 16.7267 9.78848 13.5956 9.11328 11.6828Z" fill="#333333"/>
<path fill-rule="evenodd" clip-rule="evenodd" d="M7.42528 11.6747C8.20936 12.7853 7.28515 13.8836 6.36367 14.9786C5.69811 15.7695 5.03398 16.5588 5.01598 17.3497C4.2685 16.2689 5.16904 15.1912 6.07417 14.1081C6.74845 13.3012 7.42528 12.4913 7.42528 11.6747ZM10.8013 11.6747C10.0172 12.7853 10.9414 13.8836 11.8629 14.9786C12.5285 15.7695 13.1926 16.5588 13.2106 17.3497C13.9581 16.2689 13.0575 15.1912 12.1524 14.1081C11.4781 13.3012 10.8013 12.4913 10.8013 11.6747ZM21.6133 7.26232C20.9381 9.17511 20.9381 12.3062 21.6133 14.2007C22.2885 12.3062 22.2885 9.17511 21.6133 7.26232ZM18.8637 10.5581C19.7852 9.4631 20.7094 8.36482 19.9253 7.2542C19.9253 8.0708 19.2485 8.88073 18.5742 9.68761C17.669 10.7707 16.7685 11.8484 17.516 12.9292C17.534 12.1383 18.1981 11.3491 18.8637 10.5581ZM24.3629 10.5581C23.4414 9.4631 22.5172 8.36482 23.3013 7.2542C23.3013 8.0708 23.9781 8.88073 24.6524 9.68761C25.5575 10.7707 26.4581 11.8484 25.7106 12.9292C25.6926 12.1383 25.0285 11.349 24.3629 10.5581Z" fill="#333333"/>
</svg>
