<svg width="25" height="25" viewBox="0 0 25 25" fill="none" xmlns="http://www.w3.org/2000/svg">
<path d="M12.1 16.9795C13.35 16.9795 14.4125 16.542 15.2875 15.667C16.1625 14.792 16.6 13.7295 16.6 12.4795C16.6 11.2295 16.1625 10.167 15.2875 9.29199C14.4125 8.41699 13.35 7.97949 12.1 7.97949C10.85 7.97949 9.7875 8.41699 8.9125 9.29199C8.0375 10.167 7.6 11.2295 7.6 12.4795C7.6 13.7295 8.0375 14.792 8.9125 15.667C9.7875 16.542 10.85 16.9795 12.1 16.9795ZM12.1 15.1795C11.35 15.1795 10.7125 14.917 10.1875 14.392C9.6625 13.867 9.4 13.2295 9.4 12.4795C9.4 11.7295 9.6625 11.092 10.1875 10.567C10.7125 10.042 11.35 9.77949 12.1 9.77949C12.85 9.77949 13.4875 10.042 14.0125 10.567C14.5375 11.092 14.8 11.7295 14.8 12.4795C14.8 13.2295 14.5375 13.867 14.0125 14.392C13.4875 14.917 12.85 15.1795 12.1 15.1795ZM12.1 19.9795C9.86667 19.9795 7.82917 19.3795 5.9875 18.1795C4.14583 16.9795 2.69167 15.3962 1.625 13.4295C1.54167 13.2795 1.47917 13.1253 1.4375 12.967C1.39583 12.8087 1.375 12.6462 1.375 12.4795C1.375 12.3128 1.39583 12.1503 1.4375 11.992C1.47917 11.8337 1.54167 11.6795 1.625 11.5295C2.69167 9.56283 4.14583 7.97949 5.9875 6.77949C7.82917 5.57949 9.86667 4.97949 12.1 4.97949C14.3333 4.97949 16.3708 5.57949 18.2125 6.77949C20.0542 7.97949 21.5083 9.56283 22.575 11.5295C22.6583 11.6795 22.7208 11.8337 22.7625 11.992C22.8042 12.1503 22.825 12.3128 22.825 12.4795C22.825 12.6462 22.8042 12.8087 22.7625 12.967C22.7208 13.1253 22.6583 13.2795 22.575 13.4295C21.5083 15.3962 20.0542 16.9795 18.2125 18.1795C16.3708 19.3795 14.3333 19.9795 12.1 19.9795ZM12.1 17.9795C13.9833 17.9795 15.7125 17.4837 17.2875 16.492C18.8625 15.5003 20.0667 14.1628 20.9 12.4795C20.0667 10.7962 18.8625 9.45866 17.2875 8.46699C15.7125 7.47533 13.9833 6.97949 12.1 6.97949C10.2167 6.97949 8.4875 7.47533 6.9125 8.46699C5.3375 9.45866 4.13333 10.7962 3.3 12.4795C4.13333 14.1628 5.3375 15.5003 6.9125 16.492C8.4875 17.4837 10.2167 17.9795 12.1 17.9795Z" fill="#333333"/>
</svg>
