<svg width="24" height="25" viewBox="0 0 24 25" fill="none" xmlns="http://www.w3.org/2000/svg">
<path d="M2.06008 10.8398C2.57008 11.3498 3.38008 11.3998 3.93008 10.9398C8.60008 7.0998 15.3801 7.0998 20.0601 10.9298C20.6201 11.3898 21.4401 11.3498 21.9501 10.8398C22.5401 10.2498 22.5001 9.2698 21.8501 8.7398C16.1401 4.0698 7.88008 4.0698 2.16008 8.7398C1.51008 9.2598 1.46008 10.2398 2.06008 10.8398ZM9.82008 18.5998L11.2901 20.0698C11.6801 20.4598 12.3101 20.4598 12.7001 20.0698L14.1701 18.5998C14.6401 18.1298 14.5401 17.3198 13.9401 17.0098C12.7201 16.3798 11.2601 16.3798 10.0301 17.0098C9.46008 17.3198 9.35008 18.1298 9.82008 18.5998ZM6.09008 14.8698C6.58008 15.3598 7.35008 15.4098 7.92008 14.9998C10.3601 13.2698 13.6401 13.2698 16.0801 14.9998C16.6501 15.3998 17.4201 15.3598 17.9101 14.8698L17.9201 14.8598C18.5201 14.2598 18.4801 13.2398 17.7901 12.7498C14.3501 10.2598 9.66008 10.2598 6.21008 12.7498C5.52008 13.2498 5.48008 14.2598 6.09008 14.8698Z" fill="#4D4D4D"/>
</svg>
