<svg width="24" height="25" viewBox="0 0 24 25" fill="none" xmlns="http://www.w3.org/2000/svg">
<path d="M7 21.1113C6.45 21.1113 5.97917 20.9155 5.5875 20.5238C5.19583 20.1322 5 19.6613 5 19.1113V6.11133C4.71667 6.11133 4.47917 6.01549 4.2875 5.82383C4.09583 5.63216 4 5.39466 4 5.11133C4 4.82799 4.09583 4.59049 4.2875 4.39883C4.47917 4.20716 4.71667 4.11133 5 4.11133H9C9 3.82799 9.09583 3.59049 9.2875 3.39883C9.47917 3.20716 9.71667 3.11133 10 3.11133H14C14.2833 3.11133 14.5208 3.20716 14.7125 3.39883C14.9042 3.59049 15 3.82799 15 4.11133H19C19.2833 4.11133 19.5208 4.20716 19.7125 4.39883C19.9042 4.59049 20 4.82799 20 5.11133C20 5.39466 19.9042 5.63216 19.7125 5.82383C19.5208 6.01549 19.2833 6.11133 19 6.11133V19.1113C19 19.6613 18.8042 20.1322 18.4125 20.5238C18.0208 20.9155 17.55 21.1113 17 21.1113H7ZM7 6.11133V19.1113H17V6.11133H7ZM9 16.1113C9 16.3947 9.09583 16.6322 9.2875 16.8238C9.47917 17.0155 9.71667 17.1113 10 17.1113C10.2833 17.1113 10.5208 17.0155 10.7125 16.8238C10.9042 16.6322 11 16.3947 11 16.1113V9.11133C11 8.82799 10.9042 8.59049 10.7125 8.39883C10.5208 8.20716 10.2833 8.11133 10 8.11133C9.71667 8.11133 9.47917 8.20716 9.2875 8.39883C9.09583 8.59049 9 8.82799 9 9.11133V16.1113ZM13 16.1113C13 16.3947 13.0958 16.6322 13.2875 16.8238C13.4792 17.0155 13.7167 17.1113 14 17.1113C14.2833 17.1113 14.5208 17.0155 14.7125 16.8238C14.9042 16.6322 15 16.3947 15 16.1113V9.11133C15 8.82799 14.9042 8.59049 14.7125 8.39883C14.5208 8.20716 14.2833 8.11133 14 8.11133C13.7167 8.11133 13.4792 8.20716 13.2875 8.39883C13.0958 8.59049 13 8.82799 13 9.11133V16.1113Z" fill="#BFBFBF"/>
</svg>
