<svg width="24" height="25" viewBox="0 0 24 25" fill="none" xmlns="http://www.w3.org/2000/svg">
<path d="M5 21.1113C4.45 21.1113 3.97917 20.9155 3.5875 20.5238C3.19583 20.1322 3 19.6613 3 19.1113V5.11133C3 4.56133 3.19583 4.09049 3.5875 3.69883C3.97917 3.30716 4.45 3.11133 5 3.11133H16.175C16.4417 3.11133 16.6958 3.16133 16.9375 3.26133C17.1792 3.36133 17.3917 3.50299 17.575 3.68633L20.425 6.53633C20.6083 6.71966 20.75 6.93216 20.85 7.17383C20.95 7.41549 21 7.66966 21 7.93633V19.1113C21 19.6613 20.8042 20.1322 20.4125 20.5238C20.0208 20.9155 19.55 21.1113 19 21.1113H5ZM12 18.1113C12.8333 18.1113 13.5417 17.8197 14.125 17.2363C14.7083 16.653 15 15.9447 15 15.1113C15 14.278 14.7083 13.5697 14.125 12.9863C13.5417 12.403 12.8333 12.1113 12 12.1113C11.1667 12.1113 10.4583 12.403 9.875 12.9863C9.29167 13.5697 9 14.278 9 15.1113C9 15.9447 9.29167 16.653 9.875 17.2363C10.4583 17.8197 11.1667 18.1113 12 18.1113ZM7 10.1113H14C14.2833 10.1113 14.5208 10.0155 14.7125 9.82383C14.9042 9.63216 15 9.39466 15 9.11133V7.11133C15 6.82799 14.9042 6.59049 14.7125 6.39883C14.5208 6.20716 14.2833 6.11133 14 6.11133H7C6.71667 6.11133 6.47917 6.20716 6.2875 6.39883C6.09583 6.59049 6 6.82799 6 7.11133V9.11133C6 9.39466 6.09583 9.63216 6.2875 9.82383C6.47917 10.0155 6.71667 10.1113 7 10.1113Z" fill="white"/>
</svg>
